<svg width="71" height="72" viewBox="0 0 71 72" fill="none" xmlns="http://www.w3.org/2000/svg"><ellipse cx="35.833" cy="36" rx="34.833" ry="35" fill="url(#paint0_linear)" stroke="#979797" stroke-width=".5"/><mask id="a" maskUnits="userSpaceOnUse" x="0" y="0" width="71" height="72"><ellipse cx="35.833" cy="36" rx="34.833" ry="35" fill="#fff" stroke="#fff" stroke-width=".5"/></mask><g mask="url(#a)"><path fill-rule="evenodd" clip-rule="evenodd" d="M7.312 54.398c4.632-5.655 6.948-8.482 9.732-9.51a10.92 10.92 0 017.566 0c2.784 1.028 5.1 3.855 9.732 9.51l24.89 30.38c3.232 3.944 4.848 5.916 5.466 8.112a10.92 10.92 0 010 5.921c-.618 2.196-2.234 4.168-5.466 8.112l-24.889 30.379c-4.632 5.655-6.949 8.482-9.732 9.51a10.927 10.927 0 01-7.566 0c-2.784-1.028-5.1-3.855-9.732-9.51l-24.89-30.38c-3.232-3.944-4.848-5.916-5.466-8.112a10.92 10.92 0 010-5.921c.618-2.195 2.234-4.168 5.466-8.112l24.889-30.38z" fill="url(#paint1_linear)"/><path fill-rule="evenodd" clip-rule="evenodd" d="M38.66 42.498c4.633-5.655 6.95-8.482 9.733-9.51a10.92 10.92 0 017.566 0c2.784 1.028 5.1 3.855 9.732 9.51l24.89 30.38c3.232 3.944 4.848 5.916 5.466 8.112a10.92 10.92 0 010 5.921c-.618 2.195-2.234 4.168-5.466 8.112l-24.889 30.379c-4.632 5.655-6.948 8.482-9.732 9.51a10.927 10.927 0 01-7.566 0c-2.783-1.028-5.1-3.855-9.732-9.51l-24.89-30.38c-3.232-3.944-4.848-5.916-5.466-8.112a10.92 10.92 0 010-5.921c.618-2.196 2.234-4.168 5.466-8.112l24.889-30.38z" fill="url(#paint2_linear)"/><ellipse cx="25.905" cy="21.825" rx="8.186" ry="8.225" fill="#fff"/></g><defs><linearGradient id="paint0_linear" x1="1" y1="1" x2="1" y2="71" gradientUnits="userSpaceOnUse"><stop stop-color="#B6BAC3"/><stop offset="1" stop-color="#EFEFEF"/></linearGradient><linearGradient id="paint1_linear" x1="20.827" y1="37.901" x2="-37.121" y2="95.85" gradientUnits="userSpaceOnUse"><stop stop-color="#fff"/><stop offset="1" stop-color="#fff" stop-opacity=".293"/></linearGradient><linearGradient id="paint2_linear" x1="52.176" y1="26.001" x2="-5.772" y2="83.95" gradientUnits="userSpaceOnUse"><stop stop-color="#fff"/><stop offset="1" stop-color="#fff" stop-opacity=".293"/></linearGradient></defs></svg>