<svg width="21" height="24" viewBox="0 0 21 24" fill="none" xmlns="http://www.w3.org/2000/svg">
<path fill-rule="evenodd" clip-rule="evenodd" d="M19.5304 10.6166C19.8438 10.3022 20.3527 10.3015 20.6671 10.6149C20.9815 10.9283 20.9823 11.4373 20.6688 11.7516L11.1125 21.3371C8.57517 23.8822 4.45506 23.8885 1.90955 21.3507C-0.635548 18.8056 -0.635548 14.6899 1.90374 12.1506L11.9645 2.14467C13.8379 0.281504 16.8657 0.285643 18.734 2.15392C20.6017 4.02163 20.6021 7.04966 18.7348 8.91786L8.51678 19.1413C7.30844 20.3503 5.34883 20.3508 4.13978 19.1424C2.93025 17.9329 2.92691 15.9737 4.13181 14.7605L11.4655 7.37663C11.7783 7.06166 12.2873 7.05992 12.6022 7.37275C12.9172 7.68558 12.919 8.19452 12.6061 8.50949L5.27242 15.8934C4.69168 16.4781 4.69329 17.4224 5.27595 18.0051C5.8573 18.5861 6.79904 18.5859 7.37973 18.0049L17.5978 7.78141C18.8375 6.54107 18.8372 4.53069 17.5972 3.29067C16.3555 2.04898 14.3432 2.04623 13.0981 3.28452L3.04996 13.2779C1.129 15.1988 1.129 18.2967 3.03928 20.207C4.96131 22.1232 8.06355 22.1184 9.97403 20.2021L19.5304 10.6166Z" fill="black"/>
</svg>
