<svg width="58" height="67" viewBox="0 0 58 67" fill="none" xmlns="http://www.w3.org/2000/svg"><circle cx="24.624" cy="49.507" r="1.296" fill="url(#paint0_linear)"/><circle cx="20.736" cy="57.283" r="1.296" fill="url(#paint1_linear)"/><circle cx="16.848" cy="49.507" r="1.296" fill="url(#paint2_linear)"/><circle cx="48.73" cy="57.283" r="1.296" fill="url(#paint3_linear)"/><path fill-rule="evenodd" clip-rule="evenodd" d="M17.311 28.771l-3.07-19.897a1.296 1.296 0 00-1.281-1.098H1.296a1.296 1.296 0 000 2.592h10.553l2.84 18.403H7.127c-.523 0-.995.315-1.196.797a26.49 26.49 0 00-2.043 10.22c0 14.649 11.918 26.567 26.568 26.567a26.468 26.468 0 0014.476-4.286 1.296 1.296 0 10-1.414-2.172 23.883 23.883 0 01-13.062 3.866c-13.22 0-23.976-10.755-23.976-23.976 0-.196.003-.392.008-.588 1.978.204 3.11.902 4.389 1.691 1.623 1.002 3.463 2.137 6.98 2.137 3.517 0 5.356-1.135 6.98-2.137 1.522-.94 2.837-1.75 5.619-1.75 2.782 0 4.097.81 5.619 1.75 1.623 1.002 3.463 2.137 6.98 2.137 3.517 0 5.356-1.135 6.98-2.136 1.278-.79 2.41-1.488 4.389-1.692a23.951 23.951 0 01-3.309 12.764 1.296 1.296 0 002.232 1.318 26.543 26.543 0 003.677-13.494 26.5 26.5 0 00-2.043-10.218 1.296 1.296 0 00-1.196-.798H41.472V18.024a7.103 7.103 0 003.564-1.798 7.104 7.104 0 004.86 1.918 7.136 7.136 0 007.128-7.128c0-.447-.23-.862-.61-1.099L40.864.197A1.32 1.32 0 0040.176 0c-.242 0-.488.073-.687.197l-15.552 9.72c-.379.237-.609.652-.609 1.099a7.136 7.136 0 007.128 7.128 7.104 7.104 0 004.86-1.918 7.103 7.103 0 003.564 1.799V28.77H17.311zm37.07-17.069a4.543 4.543 0 01-4.485 3.85 4.526 4.526 0 01-3.705-1.93l-3.455-9.198 11.644 7.278zm-23.925 3.85c1.478 0 2.852-.72 3.705-1.93l3.455-9.198-11.644 7.278a4.543 4.543 0 004.484 3.85zm6.326-1.535l3.394-9.036 3.394 9.036a4.522 4.522 0 01-6.788 0zm17.44 22.599a23.877 23.877 0 00-1.317-5.253H8.007a23.873 23.873 0 00-1.318 5.253c2.616.26 4.162 1.212 5.55 2.068 1.521.94 2.836 1.751 5.617 1.751 2.782 0 4.097-.811 5.62-1.75 1.623-1.003 3.462-2.138 6.98-2.138 3.517 0 5.357 1.135 6.98 2.137 1.523.94 2.838 1.751 5.62 1.751 2.78 0 4.095-.81 5.617-1.75 1.388-.857 2.934-1.81 5.55-2.069z" fill="url(#paint4_linear)"/><defs><linearGradient id="paint0_linear" x1="22.831" y1="48.675" x2="23.759" y2="52.26" gradientUnits="userSpaceOnUse"><stop stop-color="#1BDBB6"/><stop offset=".654" stop-color="#15DA97"/><stop offset=".829" stop-color="#0ED973"/><stop offset="1" stop-color="#00D727"/></linearGradient><linearGradient id="paint1_linear" x1="18.944" y1="56.451" x2="19.871" y2="60.036" gradientUnits="userSpaceOnUse"><stop stop-color="#1BDBB6"/><stop offset=".654" stop-color="#15DA97"/><stop offset=".829" stop-color="#0ED973"/><stop offset="1" stop-color="#00D727"/></linearGradient><linearGradient id="paint2_linear" x1="15.056" y1="48.675" x2="15.983" y2="52.26" gradientUnits="userSpaceOnUse"><stop stop-color="#1BDBB6"/><stop offset=".654" stop-color="#15DA97"/><stop offset=".829" stop-color="#0ED973"/><stop offset="1" stop-color="#00D727"/></linearGradient><linearGradient id="paint3_linear" x1="46.937" y1="56.451" x2="47.865" y2="60.036" gradientUnits="userSpaceOnUse"><stop stop-color="#1BDBB6"/><stop offset=".654" stop-color="#15DA97"/><stop offset=".829" stop-color="#0ED973"/><stop offset="1" stop-color="#00D727"/></linearGradient><linearGradient id="paint4_linear" x1="-10.922" y1="11.875" x2="16.113" y2="101.654" gradientUnits="userSpaceOnUse"><stop stop-color="#1BDBB6"/><stop offset=".654" stop-color="#15DA97"/><stop offset=".829" stop-color="#0ED973"/><stop offset="1" stop-color="#00D727"/></linearGradient></defs></svg>