<svg width="20" height="21" viewBox="0 0 20 21" fill="none" xmlns="http://www.w3.org/2000/svg">
<path d="M16.9382 2.13311H15.5443V1.39391C15.5443 0.675831 14.9741 0.105591 14.256 0.105591C13.5379 0.105591 12.9677 0.675831 12.9677 1.39391V2.13311H6.46271V1.39391C6.46271 0.675831 5.89247 0.105591 5.17439 0.105591C4.45631 0.105591 3.88607 0.675831 3.88607 1.39391V2.13311H2.49215C1.20383 2.13311 0.147827 3.18911 0.147827 4.47743V5.68127H19.3037V4.47743C19.2825 3.16799 18.2477 2.13311 16.9382 2.13311Z" fill="url(#paint0_linear)"/>
<path fill-rule="evenodd" clip-rule="evenodd" d="M0.147827 17.8253C0.147827 19.1136 1.20383 20.1696 2.49215 20.1696H16.9593C18.2477 20.1696 19.3037 19.1136 19.3037 17.8253V7.15967H0.147827V17.8253ZM12.7142 11.1513C12.7142 10.919 12.9043 10.7501 13.1155 10.7501H15.0374C15.2697 10.7501 15.4387 10.9401 15.4387 11.1513V12.4185C15.4387 12.6509 15.2486 12.8198 15.0374 12.8198H13.1155C12.8832 12.8198 12.7142 12.6297 12.7142 12.4185V11.1513ZM13.1155 14.5094C12.9043 14.5094 12.7142 14.6784 12.7142 14.9107V16.1779C12.7142 16.3891 12.8832 16.5792 13.1155 16.5792H15.0374C15.2486 16.5792 15.4387 16.4102 15.4387 16.1779V14.9107C15.4387 14.6995 15.2697 14.5094 15.0374 14.5094H13.1155ZM8.34239 11.1513C8.34239 10.919 8.53247 10.7501 8.74367 10.7501H10.6656C10.8979 10.7501 11.0669 10.9401 11.0669 11.1513V12.4185C11.0669 12.6509 10.8768 12.8198 10.6656 12.8198H8.74367C8.51135 12.8198 8.34239 12.6297 8.34239 12.4185V11.1513ZM8.74367 14.5094C8.53247 14.5094 8.34239 14.6784 8.34239 14.9107V16.1779C8.34239 16.3891 8.51135 16.5792 8.74367 16.5792H10.6656C10.8768 16.5792 11.0669 16.4102 11.0669 16.1779V14.9107C11.0669 14.6995 10.8979 14.5094 10.6656 14.5094H8.74367ZM3.99167 11.1513C3.99167 10.919 4.18175 10.7501 4.39295 10.7501H6.31487C6.54719 10.7501 6.71615 10.9401 6.71615 11.1513V12.4185C6.71615 12.6509 6.52607 12.8198 6.31487 12.8198H4.39295C4.16063 12.8198 3.99167 12.6297 3.99167 12.4185V11.1513ZM4.39295 14.5094C4.18175 14.5094 3.99167 14.6784 3.99167 14.9107V16.1779C3.99167 16.3891 4.16063 16.5792 4.39295 16.5792H6.31487C6.52607 16.5792 6.71615 16.4102 6.71615 16.1779V14.9107C6.71615 14.6995 6.54719 14.5094 6.31487 14.5094H4.39295Z" fill="url(#paint1_linear)"/>
<defs>
<linearGradient id="paint0_linear" x1="-18.2001" y1="0.615745" x2="-17.9021" y2="16.9311" gradientUnits="userSpaceOnUse">
<stop stop-color="#1BDBB6"/>
<stop offset="0.654365" stop-color="#15DA97"/>
<stop offset="0.828781" stop-color="#0ED973"/>
<stop offset="1" stop-color="#00D727"/>
</linearGradient>
<linearGradient id="paint1_linear" x1="-18.2001" y1="8.35003" x2="-16.5798" y2="46.3628" gradientUnits="userSpaceOnUse">
<stop stop-color="#1BDBB6"/>
<stop offset="0.654365" stop-color="#15DA97"/>
<stop offset="0.828781" stop-color="#0ED973"/>
<stop offset="1" stop-color="#00D727"/>
</linearGradient>
</defs>
</svg>
