<svg width="20" height="20" viewBox="0 0 20 20" fill="none" xmlns="http://www.w3.org/2000/svg">
<g id="facebook copy">
<g id="facebook (2)">
<path id="Path" d="M18.4709 0H1.43567C0.642735 0 0 0.642735 0 1.43567V18.4709C0 19.2638 0.642735 19.9066 1.43567 19.9066H10.6337V12.2083H8.04816V9.19512H10.6337V6.97759C10.6337 4.40605 12.2036 3.00637 14.4975 3.00637C15.5962 3.00637 16.5404 3.08823 16.8156 3.12483V5.81256H15.2338C13.9857 5.81256 13.7441 6.40563 13.7441 7.27603V9.19512H16.7281L16.3393 12.2083H13.7441V19.9066H18.4709C19.2638 19.9066 19.9066 19.2638 19.9066 18.4709V1.43567C19.9066 0.642735 19.2638 0 18.4709 0Z" fill="white"/>
</g>
</g>
</svg>
