<svg width="75" height="63" viewBox="0 0 75 63" fill="none" xmlns="http://www.w3.org/2000/svg"><path fill-rule="evenodd" clip-rule="evenodd" d="M50.427 1.641l24.22 24.677c.474.489.47 1.275-.008 1.76l-6.92 7.05a1.211 1.211 0 01-1.73 0l-.856-.879-3.961 4.036 3.024 2.966a5.06 5.06 0 011.082 5.442c-.755 1.87-2.542 3.091-4.526 3.094a4.753 4.753 0 01-1.196-.171c-.199 2.583-2.316 4.574-4.859 4.57a4.839 4.839 0 01-1.195-.166 4.955 4.955 0 01-1.406 3.116 4.712 4.712 0 01-4.648 1.29 4.954 4.954 0 01-1.404 3.116A4.872 4.872 0 0142.589 63a4.815 4.815 0 01-3.458-1.463l-.41-.396a4.864 4.864 0 01-3.361 1.37c-2.544.014-4.665-1.981-4.854-4.566a4.77 4.77 0 01-4.224-.868 4.966 4.966 0 01-1.87-3.955c0-.067.008-.132.016-.198.006-.045.012-.091.015-.137-.044.003-.088.008-.132.014-.065.008-.129.017-.193.017-2.703 0-4.893-2.232-4.893-4.985 0-.066.008-.131.017-.196.006-.047.013-.093.016-.14-.045.002-.09.008-.134.014-.064.009-.128.017-.193.017-1.973-.005-3.75-1.217-4.506-3.074a5.054 5.054 0 011.045-5.422l.311-.316-5.891-5.753-.878.895a1.207 1.207 0 01-1.73 0L.358 26.804a1.263 1.263 0 010-1.762L24.578.365a1.207 1.207 0 011.73 0l6.924 7.054a1.263 1.263 0 010 1.762l-.845.86 2.875 2.833 7.178-1.745-.663-.675a1.263 1.263 0 010-1.763l6.92-7.05a1.242 1.242 0 011.73 0zM2.947 25.923l5.195 5.292L30.632 8.3 25.44 3.008 2.948 25.923zM17.21 44.317a2.508 2.508 0 01-.726-1.764 2.508 2.508 0 01.72-1.766l6.922-7.05a2.415 2.415 0 013.45-.008c.463.466.724 1.1.725 1.764a2.509 2.509 0 01-.718 1.766l-6.923 7.054a2.415 2.415 0 01-3.45.004zm4.461 3.52c.002.664.263 1.298.726 1.764a2.415 2.415 0 003.45-.007l8.648-8.812c.466-.46.729-1.094.73-1.755a2.479 2.479 0 00-.723-1.76 2.424 2.424 0 00-1.73-.735 2.424 2.424 0 00-1.734.728l-8.649 8.812a2.51 2.51 0 00-.718 1.766zm9.374 7.04a2.47 2.47 0 01-3.462.008 2.51 2.51 0 01-.725-1.763 2.51 2.51 0 01.718-1.766l6.924-7.054a2.415 2.415 0 013.45-.008c.462.468.723 1.105.725 1.77a2.523 2.523 0 01-.718 1.771l-6.912 7.043zm2.586 4.409a2.434 2.434 0 003.473 0l5.183-5.278c.15-.152.278-.324.38-.511.016-.04.035-.078.054-.118.186-.348.284-.737.284-1.132a2.557 2.557 0 00-.725-1.782 2.415 2.415 0 00-3.448 0l-5.2 5.299c-.46.466-.719 1.1-.719 1.761 0 .661.258 1.295.718 1.761zm10.69.49a2.478 2.478 0 01-3.477-.021l-.379-.366 3.464-3.528.42.425c.45.466.702 1.096.697 1.75a2.487 2.487 0 01-.725 1.74zm14.705-13.212a2.47 2.47 0 003.464-.006c.46-.47.716-1.106.714-1.768a2.516 2.516 0 00-.724-1.763L40.913 21.873a1.207 1.207 0 00-1.712.017l-5.57 5.674a4.949 4.949 0 01-6.916 0 5.023 5.023 0 01-1.435-3.529 5.022 5.022 0 011.443-3.525L33 14.115l-2.347-2.313L11.714 31.1l-.108.108 5.891 5.753 4.893-4.985a4.83 4.83 0 014.89-1.238c1.729.54 3.025 2.006 3.37 3.815a4.814 4.814 0 015.568.95 4.956 4.956 0 01.945 5.677 4.873 4.873 0 013.193 2.222 5.045 5.045 0 01.599 3.892 4.802 4.802 0 013.058 1.42 5.063 5.063 0 011.435 3.535c-.01.477-.093.949-.245 1.4l1.713 1.732a2.464 2.464 0 003.457 0 2.486 2.486 0 00.724-1.757 2.517 2.517 0 00-.724-1.777l-2.116-2.156a1.264 1.264 0 01-.003-1.764 1.208 1.208 0 011.731-.003l2.116 2.157.869.885a2.459 2.459 0 003.448.007c.467-.463.73-1.097.733-1.76a2.493 2.493 0 00-.72-1.766l-2.988-3.044a1.263 1.263 0 01.015-1.748 1.207 1.207 0 011.715-.015l3.853 3.925zm4.378-14.073l-3.993 4.068L42.61 20.078a3.64 3.64 0 00-5.138.05l-5.574 5.674c-.97.944-2.5.94-3.465-.009a2.509 2.509 0 01-.71-1.758c.001-.659.26-1.29.718-1.755l6.566-6.69c.247-.011.484-.098.682-.25l8.779-2.137 18.936 19.288zM44.375 9.574L66.862 32.49l5.19-5.292L49.566 4.286l-5.19 5.288z" fill="url(#paint0_linear)"/><defs><linearGradient id="paint0_linear" x1="-14.365" y1="11.274" x2="4.932" y2="100.048" gradientUnits="userSpaceOnUse"><stop stop-color="#1BDBB6"/><stop offset=".654" stop-color="#15DA97"/><stop offset=".829" stop-color="#0ED973"/><stop offset="1" stop-color="#00D727"/></linearGradient></defs></svg>