<svg width="699" height="362" viewBox="0 0 699 362" fill="none" xmlns="http://www.w3.org/2000/svg"><path fill-rule="evenodd" clip-rule="evenodd" d="M530.303 73.22c9.126 0 16.524 7.397 16.524 16.523 0 9.127-7.398 16.525-16.524 16.525h-44.808c-7.912 0-14.326 6.414-14.326 14.326 0 7.912 6.414 14.326 14.326 14.326h112.607c11.797 0 21.36 9.562 21.36 21.36 0 11.796-9.563 21.36-21.36 21.36h-72.706c0 18.073-14.651 32.724-32.724 32.724h-34.265c-9.588 0-17.36 7.772-17.36 17.36s7.772 17.362 17.36 17.362h80.794c13.38 0 24.225 10.845 24.225 24.224s-10.845 24.224-24.225 24.224H184.416c-11.941 0-21.62-9.679-21.62-21.62 0-11.94 9.679-21.619 21.62-21.619h47.16c10.26 0 18.577-8.317 18.577-18.577 0-10.26-8.317-18.578-18.577-18.578H131.038c-12.864 0-23.292-10.429-23.292-23.293 0-12.864 10.428-23.292 23.292-23.292h53.049c0-17.472 14.164-31.635 31.636-31.635h52.801c7.912 0 14.326-6.414 14.326-14.326 0-7.912-6.414-14.326-14.326-14.326h-92.692c-9.126 0-16.524-7.398-16.524-16.524 0-9.127 7.398-16.525 16.524-16.525h354.471z" fill="#C7ECF1" fill-opacity=".297"/><path fill-rule="evenodd" clip-rule="evenodd" d="M645.703 246.442h-41.312c-11.281 0-20.428-9.147-20.428-20.428s9.147-20.428 20.428-20.428h41.312c11.283 0 20.428 9.147 20.428 20.428s-9.145 20.428-20.428 20.428zM67.537 203.804H26.225c-11.283 0-20.428-9.146-20.428-20.427 0-11.281 9.145-20.428 20.428-20.428h41.312c11.283 0 20.428 9.147 20.428 20.428s-9.145 20.427-20.428 20.427z" fill="#C7ECF1" fill-opacity=".297"/><path fill-rule="evenodd" clip-rule="evenodd" d="M223.114 255.862h-28.73a1.201 1.201 0 010-2.4h26.403c.572-4.635 4.41-8.272 9.132-8.53 1.907-5.22 6.948-8.794 12.56-8.794 1.985 0 3.931.442 5.713 1.288 1.977-7.897 9.003-13.468 17.298-13.468 7.872 0 14.728 5.048 17.062 12.558a1.201 1.201 0 01-2.292.712c-2.02-6.502-7.955-10.87-14.77-10.87-7.674 0-14.091 5.507-15.26 13.095l-.281 1.824-1.554-.997a10.92 10.92 0 00-5.916-1.742c-4.85 0-9.182 3.254-10.533 7.913l-.252.865h-1.235c-4.05 0-7.345 3.296-7.345 7.346v1.2zM638.586 179.113h-28.729a1.199 1.199 0 110-2.4h26.403c.572-4.634 4.408-8.271 9.13-8.529 1.908-5.22 6.95-8.794 12.562-8.794 1.984 0 3.931.442 5.714 1.288 1.974-7.898 9-13.467 17.297-13.467 7.871 0 14.727 5.046 17.06 12.557a1.2 1.2 0 11-2.292.713c-2.019-6.502-7.955-10.87-14.768-10.87-7.674 0-14.093 5.506-15.261 13.093l-.282 1.826-1.554-.999a10.907 10.907 0 00-5.914-1.741c-4.851 0-9.183 3.253-10.536 7.913l-.25.865h-1.236c-4.05 0-7.344 3.295-7.344 7.345v1.2zM24.517 234.19H1.902a1.2 1.2 0 010-2.4h20.306c.55-3.562 3.504-6.342 7.146-6.623 1.566-4.075 5.542-6.852 9.96-6.852 1.476 0 2.926.306 4.268.895 1.669-6.097 7.164-10.369 13.632-10.369 5.94 0 11.152 3.626 13.234 9.113h34.542a1.199 1.199 0 110 2.4H68.71l-.262-.845a11.707 11.707 0 00-11.234-8.268c-5.836 0-10.718 4.189-11.607 9.96l-.28 1.824-1.555-.997a8.223 8.223 0 00-4.459-1.313c-3.654 0-6.918 2.451-7.937 5.964l-.252.865h-1.16a5.452 5.452 0 00-5.447 5.446v1.2z" fill="#6C7083"/><path fill-rule="evenodd" clip-rule="evenodd" d="M609.626 104.305c3.473.57 7.106.664 10.829.214 16.252-1.965 29.683-14.71 32.373-30.857 4.291-25.769-17.645-47.758-43.402-43.555-16.152 2.634-28.948 16.014-30.972 32.255-1.157 9.28 1.073 18 5.62 25.096l13.246 2.87a7.799 7.799 0 014.739 3.154l7.567 10.823z" fill="#F8C4C6"/><path fill-rule="evenodd" clip-rule="evenodd" d="M615.762 106.003c-2.126 0-4.255-.173-6.33-.513a1.2 1.2 0 01-.989-1.379 1.193 1.193 0 011.378-.99 36.83 36.83 0 005.941.482c20.074 0 36.404-16.333 36.404-36.408 0-20.075-16.33-36.407-36.404-36.407-20.077 0-36.409 16.332-36.409 36.407a36.288 36.288 0 005.73 19.617 1.2 1.2 0 01-2.02 1.294 38.683 38.683 0 01-6.11-20.91c0-21.4 17.409-38.808 38.809-38.808 21.397 0 38.804 17.409 38.804 38.807 0 21.399-17.407 38.808-38.804 38.808zM615.762 21.74a1.2 1.2 0 01-1.2-1.2V1.638a1.2 1.2 0 112.4 0V20.54a1.2 1.2 0 01-1.2 1.2zM631.696 24.546a1.2 1.2 0 01-1.128-1.61l3.228-8.882a1.198 1.198 0 112.254.819l-3.228 8.882c-.176.489-.637.791-1.126.791zM645.712 32.624a1.2 1.2 0 01-.92-1.97l12.136-14.491a1.2 1.2 0 111.84 1.54l-12.136 14.492a1.19 1.19 0 01-.92.43zM656.13 45.007a1.2 1.2 0 01-.602-2.239l8.178-4.738a1.2 1.2 0 011.202 2.076l-8.178 4.74c-.188.108-.396.161-.6.161zM661.688 60.2a1.2 1.2 0 01-.21-2.382l18.609-3.32a1.2 1.2 0 11.422 2.363l-18.608 3.32-.213.02zM670.994 77.996l-.207-.016-9.267-1.618a1.2 1.2 0 01.413-2.365l9.267 1.617a1.2 1.2 0 01-.206 2.382zM672.634 100.998a1.19 1.19 0 01-.596-.158l-16.399-9.4a1.2 1.2 0 011.193-2.082l16.399 9.4c.576.33.775 1.062.444 1.636a1.195 1.195 0 01-1.041.604zM651.782 111.012c-.34 0-.679-.145-.916-.426l-5.906-6.984a1.2 1.2 0 011.833-1.549l5.905 6.984a1.2 1.2 0 01-.916 1.975zM638.435 129.907a1.2 1.2 0 01-1.126-.786l-6.539-17.735a1.2 1.2 0 012.253-.829l6.539 17.735a1.201 1.201 0 01-1.127 1.615zM615.76 124.501h-.028a1.197 1.197 0 01-1.172-1.227l.216-9.452c.015-.663.564-1.226 1.227-1.172a1.2 1.2 0 011.173 1.228l-.216 9.451a1.2 1.2 0 01-1.2 1.172zM560.57 78.847a1.2 1.2 0 01-.255-2.371l9.296-2.044a1.2 1.2 0 01.515 2.344l-9.296 2.044-.26.027zM569.758 60.626l-.202-.016-18.64-3.15a1.2 1.2 0 01-.982-1.382 1.19 1.19 0 011.383-.984l18.64 3.15a1.2 1.2 0 01-.199 2.382zM575.174 45.38c-.2 0-.404-.05-.59-.156l-7.831-4.44a1.2 1.2 0 111.183-2.088l7.831 4.44a1.2 1.2 0 01-.593 2.244zM585.476 32.905c-.338 0-.674-.143-.912-.421l-12.27-14.38a1.2 1.2 0 011.826-1.558l12.27 14.38a1.2 1.2 0 01-.914 1.98zM599.417 24.696a1.201 1.201 0 01-1.152-.871l-2.578-9.033c-.181-.637.187-1.3.826-1.482a1.198 1.198 0 011.483.825l2.576 9.031a1.2 1.2 0 01-1.155 1.53z" fill="#6C7083"/><path fill-rule="evenodd" clip-rule="evenodd" d="M642.488 67.195c0 14.763-11.966 26.73-26.728 26.73-14.763 0-26.73-11.967-26.73-26.73 0-14.761 11.967-26.729 26.73-26.729 14.762 0 26.728 11.968 26.728 26.73z" fill="#FA9281"/><path fill-rule="evenodd" clip-rule="evenodd" d="M569.318 112.166a1.2 1.2 0 01-1.2-1.2c0-3.808-3.098-6.908-6.906-6.908a1.2 1.2 0 010-2.4c5.132 0 9.306 4.176 9.306 9.308 0 .663-.536 1.2-1.2 1.2z" fill="#6C7083"/><path fill-rule="evenodd" clip-rule="evenodd" d="M532.454 129.401H493.01a1.2 1.2 0 110-2.4h37.1c.609-6.665 6.235-12.087 12.826-12.087h1.554c1.694-7.7 8.447-13.188 16.43-13.188 1.08 0 2.176.112 3.274.334 3.43-9.496 12.354-15.797 22.546-15.797 11.903 0 21.859 8.54 23.672 20.308a1.2 1.2 0 01-2.372.366c-1.631-10.589-10.59-18.274-21.3-18.274-9.51 0-17.792 6.096-20.61 15.171l-.342 1.104-1.116-.3a14.415 14.415 0 00-3.752-.512c-7.14 0-13.134 5.121-14.252 12.177l-.158 1.011h-3.574c-5.682 0-10.482 4.986-10.482 10.887v1.2zM134.828 220.546h-23.162a1.201 1.201 0 010-2.4h23.162a1.2 1.2 0 110 2.4zM193.866 243.919H91.256a1.2 1.2 0 110-2.4h102.61a1.201 1.201 0 010 2.4zM629.176 194.706H547.37a1.201 1.201 0 010-2.4h81.806a1.199 1.199 0 110 2.4zM156.682 53.6H74.877a1.2 1.2 0 110-2.4h81.805a1.2 1.2 0 010 2.4zM509.14 91.598h-40.746a1.2 1.2 0 110-2.4h40.746a1.2 1.2 0 010 2.4zM64.676 53.6H50.191a1.2 1.2 0 110-2.4h14.485a1.2 1.2 0 010 2.4zM473.669 201.306l-.311-.041a1.199 1.199 0 01-.848-1.47 7.641 7.641 0 013.583-4.67 7.64 7.64 0 015.834-.767 7.636 7.636 0 014.672 3.582 1.2 1.2 0 01-2.08 1.2 5.254 5.254 0 00-3.212-2.465 5.25 5.25 0 00-4.014.529 5.258 5.258 0 00-2.466 3.212 1.2 1.2 0 01-1.158.89z" fill="#6C7083"/><path fill-rule="evenodd" clip-rule="evenodd" d="M485.552 199.745c-.415 0-.818-.215-1.04-.601a7.638 7.638 0 01-.768-5.835 7.637 7.637 0 013.583-4.67 7.641 7.641 0 015.836-.768 1.2 1.2 0 11-.622 2.318 5.25 5.25 0 00-4.014.528 5.258 5.258 0 00-2.465 3.213 5.259 5.259 0 00.528 4.015 1.2 1.2 0 01-1.038 1.8zM532.758 233.482l-.312-.042a1.2 1.2 0 01-.848-1.469 7.641 7.641 0 013.582-4.671 7.642 7.642 0 015.835-.768 7.638 7.638 0 014.671 3.584 1.2 1.2 0 11-2.079 1.198 5.255 5.255 0 00-3.212-2.463 5.254 5.254 0 00-4.015.528 5.258 5.258 0 00-2.464 3.212 1.201 1.201 0 01-1.158.891z" fill="#6C7083"/><path fill-rule="evenodd" clip-rule="evenodd" d="M544.64 231.919c-.415 0-.818-.215-1.04-.6a7.637 7.637 0 01-.768-5.835 7.646 7.646 0 013.583-4.67 7.645 7.645 0 015.836-.768 1.2 1.2 0 01-.622 2.319 5.25 5.25 0 00-4.014.528 5.256 5.256 0 00-2.465 3.212 5.255 5.255 0 00.528 4.014 1.197 1.197 0 01-1.038 1.8zM454.486 248.513l-.311-.041a1.202 1.202 0 01-.85-1.47 7.637 7.637 0 013.583-4.67 7.637 7.637 0 015.836-.768 7.637 7.637 0 014.67 3.583 1.201 1.201 0 01-2.079 1.2 5.256 5.256 0 00-3.213-2.465 5.247 5.247 0 00-4.014.528 5.247 5.247 0 00-2.464 3.212 1.2 1.2 0 01-1.158.891z" fill="#6C7083"/><path fill-rule="evenodd" clip-rule="evenodd" d="M466.368 246.95c-.414 0-.817-.214-1.04-.6a7.636 7.636 0 01-.767-5.835 7.635 7.635 0 013.582-4.669 7.63 7.63 0 015.835-.768 1.2 1.2 0 01-.62 2.317 5.248 5.248 0 00-4.015.529 5.256 5.256 0 00-2.465 3.212 5.254 5.254 0 00.529 4.014 1.2 1.2 0 01-1.039 1.8zM113.137 120.064a1.2 1.2 0 01-1.2-1.2c0-8.03-6.533-14.562-14.563-14.562-8.03 0-14.56 6.532-14.56 14.562a1.2 1.2 0 01-2.4 0c0-9.353 7.607-16.962 16.96-16.962 9.354 0 16.963 7.609 16.963 16.962a1.2 1.2 0 01-1.2 1.2zM52.41 114.223a1.2 1.2 0 01-1.2-1.2 16.85 16.85 0 014.968-11.994 16.85 16.85 0 0111.994-4.968 1.2 1.2 0 010 2.4c-3.89 0-7.547 1.515-10.297 4.265a14.467 14.467 0 00-4.265 10.297 1.2 1.2 0 01-1.2 1.2z" fill="#6C7083"/><path fill-rule="evenodd" clip-rule="evenodd" d="M135.63 132.276h-11.922v-1.2c0-5.906-4.804-10.71-10.71-10.71a1.201 1.201 0 010-2.4c6.824 0 12.448 5.242 13.056 11.91h9.576a1.201 1.201 0 010 2.4zM46.882 114.296a1.2 1.2 0 01-1.2-1.2c0-12.532 10.196-22.73 22.729-22.73 9.527 0 18.114 6.013 21.367 14.963a1.199 1.199 0 11-2.256.819c-2.909-8.004-10.59-13.382-19.111-13.382-11.21 0-20.33 9.121-20.33 20.33a1.2 1.2 0 01-1.2 1.2zM192.328 318.17c-.663 0-1.2-.536-1.2-1.2 0-10.561-8.591-19.152-19.152-19.152-10.56 0-19.151 8.591-19.151 19.152a1.2 1.2 0 11-2.4 0c0-11.883 9.667-21.552 21.551-21.552 11.883 0 21.552 9.669 21.552 21.552a1.2 1.2 0 01-1.2 1.2zM113.92 310.63a1.2 1.2 0 01-1.2-1.2 21.407 21.407 0 016.313-15.24 21.404 21.404 0 0115.239-6.312 1.2 1.2 0 110 2.4 19.02 19.02 0 00-13.542 5.61 19.02 19.02 0 00-5.61 13.542c0 .662-.538 1.2-1.2 1.2z" fill="#6C7083"/><path fill-rule="evenodd" clip-rule="evenodd" d="M107.981 310.727l-33.749-.097a1.2 1.2 0 01.004-2.4h.003l31.367.09c.634-15.434 13.386-27.795 28.974-27.795 12.154 0 23.108 7.671 27.26 19.089a1.2 1.2 0 01-2.256.82c-3.807-10.473-13.856-17.509-25.004-17.509-14.666 0-26.599 11.932-26.599 26.598v1.204zM192.328 344.63h-63.221a1.199 1.199 0 110-2.4h63.221c6.61 0 11.989-5.379 11.989-11.99 0-6.611-5.379-11.99-11.989-11.99a1.2 1.2 0 110-2.4c7.934 0 14.389 6.456 14.389 14.39 0 7.936-6.455 14.39-14.389 14.39zM122.186 344.63h-32.22a1.2 1.2 0 110-2.4h32.22a1.2 1.2 0 110 2.4zM84.662 344.63H72.326a1.2 1.2 0 010-2.4h12.336a1.2 1.2 0 010 2.4zM654.12 305.614a1.2 1.2 0 01-1.2-1.2c0-9.658-7.856-17.516-17.514-17.516s-17.515 7.858-17.515 17.516a1.2 1.2 0 11-2.4 0c0-10.982 8.933-19.916 19.915-19.916 10.981 0 19.914 8.934 19.914 19.916 0 .663-.536 1.2-1.2 1.2zM582.017 298.68a1.2 1.2 0 01-1.2-1.2c0-5.32 2.072-10.321 5.834-14.083a19.788 19.788 0 0114.081-5.833 1.199 1.199 0 110 2.4 17.4 17.4 0 00-12.384 5.13 17.403 17.403 0 00-5.131 12.386 1.2 1.2 0 01-1.2 1.2z" fill="#6C7083"/><path fill-rule="evenodd" clip-rule="evenodd" d="M576.653 298.77l-31.133-.09a1.2 1.2 0 01.004-2.4h.003l28.752.083c.633-14.201 12.383-25.56 26.736-25.56 11.218 0 21.329 7.08 25.159 17.617a1.197 1.197 0 01-.716 1.537 1.197 1.197 0 01-1.538-.717c-3.489-9.592-12.693-16.037-22.905-16.037-13.434 0-24.362 10.929-24.362 24.363v1.204zM654.12 329.946h-58.138a1.199 1.199 0 110-2.4h58.138c6.028 0 10.931-4.903 10.931-10.93 0-6.026-4.903-10.928-10.931-10.928a1.201 1.201 0 010-2.4c7.35 0 13.331 5.978 13.331 13.328s-5.981 13.33-13.331 13.33zM589.619 329.946h-29.631a1.199 1.199 0 110-2.4h29.631a1.2 1.2 0 010 2.4zM555.113 329.946h-11.345a1.2 1.2 0 110-2.4h11.345a1.201 1.201 0 010 2.4zM216.785 93.306h-28.673c-5.215 0-9.458-4.242-9.458-9.457 0-5.215 4.243-9.459 9.458-9.459h66.644a5.709 5.709 0 005.703-5.702 5.71 5.71 0 00-5.703-5.702H240.18c-4.728 0-8.575-3.846-8.575-8.576 0-4.728 3.847-8.575 8.575-8.575h47.932a1.2 1.2 0 110 2.4H240.18a6.181 6.181 0 00-6.175 6.175 6.182 6.182 0 006.175 6.176h14.576c4.468 0 8.103 3.634 8.103 8.102s-3.635 8.102-8.103 8.102h-66.644a7.066 7.066 0 00-7.058 7.059 7.065 7.065 0 007.058 7.057h28.673a1.2 1.2 0 010 2.4z" fill="#6C7083"/><path fill-rule="evenodd" clip-rule="evenodd" d="M237.895 93.306H222.75a1.2 1.2 0 010-2.4h15.145a1.2 1.2 0 010 2.4zM475.936 297.535h-28.673a1.199 1.199 0 110-2.4h28.673a7.065 7.065 0 007.057-7.057c0-3.892-3.166-7.058-7.057-7.058h-66.645c-4.469 0-8.103-3.635-8.103-8.103 0-4.467 3.634-8.102 8.103-8.102h14.575a6.184 6.184 0 006.177-6.177 6.183 6.183 0 00-6.177-6.174h-47.93a1.199 1.199 0 110-2.4h47.93c4.73 0 8.577 3.846 8.577 8.574 0 4.73-3.847 8.577-8.577 8.577h-14.575a5.709 5.709 0 00-5.703 5.702 5.71 5.71 0 005.703 5.703h66.645c5.215 0 9.457 4.243 9.457 9.458 0 5.214-4.242 9.457-9.457 9.457z" fill="#6C7083"/><path fill-rule="evenodd" clip-rule="evenodd" d="M441.298 297.535h-15.146a1.2 1.2 0 110-2.4h15.146a1.2 1.2 0 110 2.4zM319.189 269.062l-.248-.026a1.2 1.2 0 01-.928-1.42l6.459-30.806a1.197 1.197 0 011.42-.928c.648.135 1.065.771.928 1.42l-6.458 30.806a1.2 1.2 0 01-1.173.954zM333.312 272.022l-.247-.026a1.198 1.198 0 01-.928-1.42l6.457-30.805a1.199 1.199 0 112.349.493l-6.457 30.804a1.201 1.201 0 01-1.174.954zM310.283 266.351a1.2 1.2 0 01-1.197-1.126l-2.197-35.793a1.198 1.198 0 011.125-1.271 1.192 1.192 0 011.27 1.124l2.198 35.793a1.2 1.2 0 01-1.125 1.27l-.074.003zM342.425 273.09a1.2 1.2 0 01-1.06-1.759l14.614-27.678a1.2 1.2 0 012.123 1.121l-14.614 27.676a1.2 1.2 0 01-1.063.64z" fill="#6C7083"/><path fill-rule="evenodd" clip-rule="evenodd" d="M323.641 305.728l-9.597-2.013c-7.564-1.585-12.456-9.072-10.87-16.635l3.664-17.476 37.102 7.78-3.663 17.475c-1.585 7.564-9.072 12.455-16.636 10.869z" fill="#DCBFD2"/><path fill-rule="evenodd" clip-rule="evenodd" d="M335.491 275.611l-3.663 17.476c-1.586 7.563-9.072 12.455-16.636 10.869l8.449 1.772c7.564 1.586 15.051-3.305 16.636-10.869l3.663-17.475-8.449-1.773z" fill="#EDD8E2"/><path fill-rule="evenodd" clip-rule="evenodd" d="M334.345 234.425c-37.356-7.981-86.029-68.617-74.666-121.799s62.4-81.058 115.581-69.694c53.182 11.363 88.371 57.662 77.007 110.844-11.363 53.182-79.141 88.935-117.922 80.649z" fill="url(#paint0_linear)"/><path fill-rule="evenodd" clip-rule="evenodd" d="M378.641 43.714c14.648 26.305 19.809 61.71 11.457 100.8-7.834 36.664-29.575 68.509-54.214 90.21 39.007 7.045 105.169-28.462 116.383-80.948 11.12-52.046-22.345-97.494-73.626-110.062z" fill="#FFFFFE"/><path fill-rule="evenodd" clip-rule="evenodd" d="M452.267 153.776c9.521-44.558-26.217-95.125-74.995-108.35 29.366 21.678 40.004 65.71 31.998 103.183-7.32 34.258-31.624 65.797-67.04 82.955 37.677-6.401 100.902-35.036 110.037-77.788z" fill="#E5E6E3"/><path fill-rule="evenodd" clip-rule="evenodd" d="M372.184 42.334c-24.12 18.021-43.3 48.226-51.652 87.315-7.834 36.665-1.006 74.614 12.614 104.489-38.48-9.51-84.355-68.956-73.14-121.442 11.121-52.046 60.238-79.847 112.178-70.362z" fill="#FFFFFE"/><path fill-rule="evenodd" clip-rule="evenodd" d="M260.006 112.696c-9.266 43.366 32.956 102.374 65.265 123.151-20.548-28.621-30.191-75.538-22.815-110.059 8.045-37.648 26.928-67.936 69.059-82.95-43.742.27-101.885 24.816-111.509 69.858z" fill="#E5E6E3"/><path fill-rule="evenodd" clip-rule="evenodd" d="M333.148 235.338c-.456 0-.892-.26-1.092-.702-15.225-33.392-19.852-71.749-12.698-105.238 7.857-36.766 26.77-67.914 53.256-87.705a1.2 1.2 0 111.437 1.922C348.03 63.06 329.44 93.702 321.706 129.9c-7.05 32.995-2.482 70.807 12.532 103.74a1.2 1.2 0 01-1.09 1.698z" fill="#6C7083"/><path fill-rule="evenodd" clip-rule="evenodd" d="M284.327 117.893c10.471-49.007 45.62-77.867 92.466-74.634-3.941-1.31-16.327-2.715-20.597-2.746-52.615-.393-87.065 29.476-96.517 72.113-11.771 53.093 35.247 110.071 67.8 116.43 4.01.784 2.714 2.081 7.232 2.029-34.92-16.319-60.576-65.49-50.384-113.192z" fill="url(#paint1_linear)"/><path fill-rule="evenodd" clip-rule="evenodd" d="M267.895 114.382c9.453-42.639 43.902-72.507 96.517-72.114 2.14.016 6.321.378 10.454.898.643.033 1.279.048 1.927.093-3.941-1.31-16.327-2.715-20.597-2.746-52.615-.393-87.065 29.476-96.517 72.113-11.771 53.093 35.247 110.071 67.8 116.43 4.01.784 2.714 2.081 7.232 2.029-.654-.306-1.298-.645-1.945-.974-32.358-9.034-76.294-64.209-64.871-115.729z" fill="#86E0BD"/><path fill-rule="evenodd" clip-rule="evenodd" d="M427.619 148.51c10.471-49.007-9.864-90.304-56.104-105.671 4.131.415 7.126.875 7.126.875 51.492 13.28 84.99 56.88 73.626 110.062-11.363 53.182-80.567 88.631-117.922 80.649-1.795-.383-3.833.163-5.903.711-2.538.67-5.126 1.341-7.384.298 38.539-.623 96.368-39.222 106.561-86.924z" fill="url(#paint2_linear)"/><path fill-rule="evenodd" clip-rule="evenodd" d="M378.641 43.714s-1.671-.256-4.236-.56c48.593 14.768 79.536 57.22 68.551 108.633-10.331 48.347-68.461 82.034-107.011 81.763-5.17 1.16-10.174 1.808-14.887 1.884 2.258 1.043 4.846.372 7.384-.298 2.07-.548 4.108-1.094 5.903-.711 37.355 7.982 106.559-27.467 117.922-80.649 11.364-53.182-22.134-96.782-73.626-110.062z" fill="#86E0BD"/><path fill-rule="evenodd" clip-rule="evenodd" d="M333.458 233.878c-.187 0-.375-.044-.553-.136-14.973-7.783-29.841-24.864-39.769-45.692-11.143-23.379-14.688-48.383-9.983-70.408 10.231-47.879 47.538-78.931 90.705-75.52a1.201 1.201 0 01-.189 2.393c-41.93-3.313-78.197 26.96-88.169 73.629-4.596 21.51-1.114 45.969 9.803 68.872 9.712 20.375 24.183 37.046 38.71 44.596a1.2 1.2 0 01-.555 2.266z" fill="#6C7083"/><path fill-rule="evenodd" clip-rule="evenodd" d="M333.458 233.878a1.2 1.2 0 01-.058-2.399c16.884-.843 37.503-10.021 55.158-24.552 19.837-16.33 33.294-37.164 37.888-58.668 9.97-46.666-11.733-89.326-52.779-103.744a1.2 1.2 0 11.795-2.263c42.22 14.828 64.56 58.626 54.33 106.508-4.707 22.032-18.454 43.347-38.709 60.02-18.039 14.847-39.184 24.229-56.565 25.095l-.06.003z" fill="#6C7083"/><path fill-rule="evenodd" clip-rule="evenodd" d="M335.884 235.922c-.333 0-.664-.136-.902-.406a1.202 1.202 0 01.108-1.694c27.162-23.922 46.785-56.564 53.835-89.559 9.294-43.501 4.253-78.274-14.581-100.557a1.2 1.2 0 111.833-1.549c19.331 22.871 24.55 58.353 15.094 102.607-7.153 33.488-27.054 66.605-54.594 90.86a1.2 1.2 0 01-.793.298z" fill="#6C7083"/><path fill-rule="evenodd" clip-rule="evenodd" d="M383.662 46.792c-.124.58-4.714.09-10.252-1.095-5.538-1.183-9.928-2.611-9.804-3.19.124-.58 4.714-.09 10.253 1.093 5.538 1.183 9.927 2.612 9.803 3.192z" fill="#FFFFFE"/><path fill-rule="evenodd" clip-rule="evenodd" d="M351.701 41.6c-44.433 0-81.58 27.893-90.849 71.277-11.385 53.289 37.908 112.718 73.744 120.374 36.698 7.842 104.903-25.464 116.498-79.725l1.173.25-1.173-.25c5.345-25.017.336-49.932-14.102-70.157-14.136-19.8-36.149-33.744-61.982-39.263-7.911-1.69-15.72-2.506-23.309-2.506zm-17.607 193.998c-18.956-4.05-40.548-21.082-56.346-44.45-17.42-25.766-24.434-54.478-19.243-78.773 11.139-52.13 61.439-82.489 117.006-70.616 26.421 5.645 48.949 19.927 63.435 40.215 14.835 20.78 19.983 46.368 14.494 72.053-5.22 24.429-23.157 47.807-49.215 64.14-19.111 11.981-40.218 18.648-57.873 18.648-4.32 0-8.431-.398-12.258-1.217z" fill="#6C7083"/><path fill-rule="evenodd" clip-rule="evenodd" d="M310.018 238.712c-5.186-1.107-8.49-6.208-7.383-11.394l1.819-8.514 62.89 13.437-1.819 8.515a9.6 9.6 0 01-11.394 7.382l-44.113-9.426z" fill="url(#paint3_linear)"/><path fill-rule="evenodd" clip-rule="evenodd" d="M365.706 239.91l-62.89-13.438 1.638-7.668 62.89 13.437-1.638 7.669z" fill="#86E0BD"/><path fill-rule="evenodd" clip-rule="evenodd" d="M305.377 220.229l-1.568 7.34c-.969 4.53 1.929 9.003 6.459 9.971l44.114 9.425c4.528.966 9.002-1.93 9.969-6.46l1.569-7.34-60.543-12.936zm50.763 29.323c-.747 0-1.502-.078-2.26-.24l-44.113-9.425c-5.824-1.245-9.55-6.996-8.305-12.819l2.07-9.688 65.236 13.938-2.07 9.689c-1.082 5.066-5.575 8.544-10.558 8.545z" fill="#6C7083"/><path fill-rule="evenodd" clip-rule="evenodd" d="M334.706 279.353l-28.042-3.071 1.101-5.257 27.48 5.761-.539 2.567z" fill="#AA94A9"/><path fill-rule="evenodd" clip-rule="evenodd" d="M342.131 280.166l-7.425-.813.539-2.567 7.275 1.525-.389 1.855z" fill="#B2A6B1"/><path fill-rule="evenodd" clip-rule="evenodd" d="M307.765 271.025l-3.417 16.301c-1.454 6.936 3.006 13.761 9.942 15.214l9.597 2.013c3.346.699 6.774.049 9.658-1.833 2.882-1.885 4.856-4.764 5.558-8.108l3.417-16.301-34.755-7.286zm18.767 36.204c-1.044 0-2.094-.108-3.137-.328l-9.599-2.012c-8.23-1.725-13.522-9.825-11.797-18.055l3.911-18.65 39.452 8.271-3.91 18.649c-.833 3.973-3.174 7.391-6.594 9.625a15.178 15.178 0 01-8.326 2.5z" fill="#6C7083"/><path fill-rule="evenodd" clip-rule="evenodd" d="M346.939 278.357l-43.243-9.066a1.853 1.853 0 01-1.429-2.188l.685-3.265a1.853 1.853 0 012.186-1.429l43.245 9.066a1.853 1.853 0 011.429 2.187l-.685 3.266a1.853 1.853 0 01-2.188 1.429z" fill="#DCBFD2"/><path fill-rule="evenodd" clip-rule="evenodd" d="M346.75 271.133l-7.745-1.624a3.527 3.527 0 012.719 4.163 3.527 3.527 0 01-4.163 2.719l7.746 1.624a3.525 3.525 0 004.162-2.719 3.526 3.526 0 00-2.719-4.163z" fill="#EDD8E2"/><path fill-rule="evenodd" clip-rule="evenodd" d="M304.762 263.569a.662.662 0 00-.356.108.642.642 0 00-.279.408l-.687 3.264a.654.654 0 00.502.768l43.244 9.066a.653.653 0 00.767-.501l.684-3.266a.643.643 0 00-.093-.484.646.646 0 00-.407-.282l-43.245-9.066-.13-.015zm42.56 16.027a3.06 3.06 0 01-.629-.064l-43.243-9.066a3.03 3.03 0 01-1.925-1.318 3.028 3.028 0 01-.433-2.291l.685-3.265a3.027 3.027 0 011.317-1.924 3.01 3.01 0 012.292-.433l43.243 9.066a3.025 3.025 0 011.923 1.318c.447.681.6 1.495.434 2.289l-.684 3.266a3.027 3.027 0 01-1.317 1.923 3.022 3.022 0 01-1.663.499zM190.129 211.62a1.2 1.2 0 01-1.2-1.195l-.053-13.582a1.199 1.199 0 011.196-1.203h.004c.662 0 1.198.534 1.2 1.195l.053 13.58a1.199 1.199 0 01-1.195 1.205h-.005zM196.355 211.596a1.2 1.2 0 01-1.2-1.195l-.052-13.582a1.199 1.199 0 011.195-1.203h.005a1.2 1.2 0 011.2 1.195l.052 13.581a1.2 1.2 0 01-1.195 1.204h-.005zM186.126 211.28a1.202 1.202 0 01-1.156-.878l-4.153-14.906a1.202 1.202 0 012.313-.645l4.153 14.907a1.202 1.202 0 01-.834 1.478l-.323.044zM200.299 211.226a1.2 1.2 0 01-1.155-1.527l3.67-12.996a1.2 1.2 0 112.31.653l-3.67 12.996c-.15.529-.632.874-1.155.874z" fill="#6C7083"/><path fill-rule="evenodd" clip-rule="evenodd" d="M195.422 225.997l-4.232.017c-3.335.013-6.073-2.705-6.086-6.04l-.029-7.705 16.357-.062.03 7.704c.013 3.335-2.705 6.074-6.04 6.086z" fill="#DCBFD2"/><path fill-rule="evenodd" clip-rule="evenodd" d="M197.707 212.221l.03 7.704c.012 3.335-2.706 6.075-6.039 6.087l3.724-.015c3.335-.012 6.053-2.751 6.04-6.086l-.03-7.704-3.725.014z" fill="#EDD8E2"/><path fill-rule="evenodd" clip-rule="evenodd" d="M193.51 194.945c-16.482 0-42.489-21.198-42.489-44.664s19.023-39.831 42.489-39.831c23.466 0 42.489 16.365 42.489 39.831 0 23.466-25.377 44.664-42.489 44.664z" fill="url(#paint4_linear)"/><path fill-rule="evenodd" clip-rule="evenodd" d="M195.007 110.476c8.553 9.778 13.923 24.253 13.923 41.502 0 16.177-6.303 31.575-14.744 42.954 17.096-.544 41.813-21.492 41.813-44.651 0-22.965-18.219-39.126-40.992-39.805z" fill="#FFFFFE"/><path fill-rule="evenodd" clip-rule="evenodd" d="M235.999 150.281c0-19.661-19.64-37.777-41.415-38.959 14.346 6.499 22.804 24.12 22.804 40.656 0 15.115-7.411 30.615-20.809 41.048 15.322-6.097 39.42-23.881 39.42-42.745z" fill="#E5E6E3"/><path fill-rule="evenodd" clip-rule="evenodd" d="M192.157 110.476c-8.552 9.778-13.922 24.253-13.922 41.502 0 16.177 6.302 31.575 14.744 42.954-17.096-.544-41.814-21.492-41.814-44.651 0-22.965 18.22-39.126 40.992-39.805z" fill="#FFFFFE"/><path fill-rule="evenodd" clip-rule="evenodd" d="M151.165 150.281c0 19.134 23.137 40.227 38.645 46.082-11.252-10.225-19.552-29.154-19.552-44.385 0-16.613 5.238-31.096 21.663-41.23-18.433 4.058-40.756 19.657-40.756 39.533z" fill="#E5E6E3"/><path fill-rule="evenodd" clip-rule="evenodd" d="M192.98 196.132c-.368 0-.729-.168-.966-.485-9.519-12.833-14.979-28.751-14.979-43.669 0-16.389 5.232-31.398 14.732-42.261a1.199 1.199 0 111.807 1.579c-9.117 10.426-14.139 24.874-14.139 40.682 0 14.415 5.288 29.81 14.508 42.238a1.2 1.2 0 01-.963 1.916z" fill="#6C7083"/><path fill-rule="evenodd" clip-rule="evenodd" d="M161.897 150.281c0-21.624 12.23-36.971 32.289-39.831-1.78-.198-7.135.327-8.94.698-22.237 4.579-34.081 20.288-34.225 39.133-.18 23.465 24.798 43.268 39.108 43.017.685-.012 1.039.081 1.327.173.454.147.746.293 1.907.031-16.206-3.738-31.466-22.173-31.466-43.221z" fill="url(#paint5_linear)"/><path fill-rule="evenodd" clip-rule="evenodd" d="M154.646 150.281c.144-18.845 11.988-34.554 34.227-39.133.903-.186 2.701-.411 4.491-.563.275-.045.545-.095.822-.135-1.78-.198-7.135.327-8.94.698-22.237 4.579-34.081 20.288-34.225 39.133-.18 23.465 24.798 43.268 39.108 43.017.685-.012 1.039.081 1.327.173.454.147.746.293 1.907.031-.303-.07-.606-.156-.908-.235-14.469-.895-37.984-20.216-37.809-42.986z" fill="#86E0BD"/><path fill-rule="evenodd" clip-rule="evenodd" d="M225.122 150.281c0-21.624-12.303-37.217-33.201-39.533 1.781-.197 3.086-.272 3.086-.272 22.926.961 40.992 16.339 40.992 39.805s-26.006 44.664-42.489 44.664c-1.763 0-3.615 2.053-5.516 1.623 16.206-3.738 37.128-25.239 37.128-46.287z" fill="url(#paint6_linear)"/><path fill-rule="evenodd" clip-rule="evenodd" d="M195.007 110.476s-.728.042-1.838.145c21.836 1.85 38.721 16.974 38.721 39.66 0 21.332-21.492 40.789-37.784 44.15-2.076.955-4.129 1.68-6.112 2.137 1.901.43 3.753-1.623 5.516-1.623 16.483 0 42.489-21.198 42.489-44.664s-18.066-38.844-40.992-39.805z" fill="#86E0BD"/><path fill-rule="evenodd" clip-rule="evenodd" d="M192.979 195.487l-.319-.044c-13.346-3.676-31.963-22.637-31.963-45.162 0-21.478 13.183-38.224 32.059-40.722a1.203 1.203 0 011.346 1.032 1.197 1.197 0 01-1.032 1.346c-17.647 2.337-29.973 18.103-29.973 38.344 0 21.078 17.887 39.456 30.2 42.849a1.2 1.2 0 01-.318 2.357z" fill="#6C7083"/><path fill-rule="evenodd" clip-rule="evenodd" d="M192.978 195.487a1.202 1.202 0 01-.308-2.36c12.744-3.395 31.252-21.773 31.252-42.846 0-20.237-12.759-36.004-31.028-38.343a1.2 1.2 0 11.305-2.379c19.502 2.496 33.123 19.241 33.123 40.722 0 22.53-19.239 41.49-33.034 45.165l-.31.041z" fill="#6C7083"/><path fill-rule="evenodd" clip-rule="evenodd" d="M194.185 196.132a1.2 1.2 0 01-.963-1.916c9.219-12.428 14.508-27.823 14.508-42.238 0-13.233-2.595-31.014-14.954-40.578a1.2 1.2 0 011.468-1.899c10.393 8.041 15.886 22.731 15.886 42.477 0 14.918-5.46 30.836-14.98 43.669a1.2 1.2 0 01-.965.485z" fill="#6C7083"/><path fill-rule="evenodd" clip-rule="evenodd" d="M197.404 111.322c0 .255-1.982.462-4.425.462-2.444 0-4.425-.207-4.425-.462 0-.256 1.981-.464 4.425-.464 2.443 0 4.425.208 4.425.464z" fill="#FFFFFE"/><path fill-rule="evenodd" clip-rule="evenodd" d="M193.511 111.65c-23.539 0-41.29 16.607-41.29 38.631 0 23.149 25.734 43.464 41.29 43.464 15.927 0 41.288-19.891 41.288-43.464 0-22.024-17.75-38.631-41.288-38.631zm-43.69 38.631c0-23.392 18.783-41.031 43.69-41.031 24.906 0 43.688 17.639 43.688 41.031 0 24.875-26.835 45.864-43.688 45.864-16.461 0-43.69-21.436-43.69-45.864z" fill="#6C7083"/><path fill-rule="evenodd" clip-rule="evenodd" d="M199.338 198.947h-11.95a7.899 7.899 0 01-7.899-7.899h27.749a7.9 7.9 0 01-7.9 7.899z" fill="url(#paint7_linear)"/><path fill-rule="evenodd" clip-rule="evenodd" d="M207.238 194.431h-.759a7.82 7.82 0 00.595-1.777l.164-.078v1.855z" fill="#AFBFC4"/><path fill-rule="evenodd" clip-rule="evenodd" d="M207.074 192.654a7.868 7.868 0 00.164-1.606v1.528l-.164.078z" fill="#636674"/><path fill-rule="evenodd" clip-rule="evenodd" d="M180.248 194.431h-.759v-2.142l.105.053c.122.736.345 1.438.654 2.089z" fill="#AFBFC4"/><path fill-rule="evenodd" clip-rule="evenodd" d="M179.594 192.342l-.105-.053v-1.241c0 .441.036.873.105 1.294z" fill="#636674"/><path fill-rule="evenodd" clip-rule="evenodd" d="M206.479 194.431h-26.231a7.873 7.873 0 01-.759-3.383h27.749a7.868 7.868 0 01-.759 3.383z" fill="#86E0BD"/><path fill-rule="evenodd" clip-rule="evenodd" d="M180.797 192.247c.567 3.124 3.307 5.5 6.591 5.5h11.951c3.285 0 6.024-2.376 6.592-5.5h-25.134zm18.542 7.9h-11.951c-5.017 0-9.099-4.081-9.099-9.1v-1.2h30.15v1.2c0 5.019-4.083 9.1-9.1 9.1z" fill="#6C7083"/><path fill-rule="evenodd" clip-rule="evenodd" d="M201.438 213.492l-.002-.352.002.352z" fill="#C0BFBB"/><path fill-rule="evenodd" clip-rule="evenodd" d="M201.436 213.14l-.004-.933.004.933z" fill="#A0AEB2"/><path fill-rule="evenodd" clip-rule="evenodd" d="M185.086 215.155l-.011-2.886 12.632-.048.006 1.65-12.627 1.284z" fill="#AA94A9"/><path fill-rule="evenodd" clip-rule="evenodd" d="M197.713 213.871l-.006-1.65 3.725-.014.006 1.285-3.725.379z" fill="#B2A6B1"/><path fill-rule="evenodd" clip-rule="evenodd" d="M186.28 213.466l.024 6.504a4.869 4.869 0 004.862 4.844h.02l4.232-.017a4.866 4.866 0 004.844-4.881l-.024-6.504-13.958.054zm4.886 13.748c-3.991 0-7.247-3.24-7.262-7.235l-.034-8.905 18.758-.072.034 8.905c.016 4.005-3.23 7.276-7.235 7.29l-4.232.017h-.029z" fill="#6C7083"/><path fill-rule="evenodd" clip-rule="evenodd" d="M202.066 212.35l-17.626.068a1.523 1.523 0 01-1.523-1.512 1.523 1.523 0 011.512-1.523l17.626-.067a1.522 1.522 0 011.523 1.511 1.522 1.522 0 01-1.512 1.523z" fill="#DCBFD2"/><path fill-rule="evenodd" clip-rule="evenodd" d="M202.055 209.316l-3.415.013a1.521 1.521 0 011.522 1.511 1.52 1.52 0 01-1.51 1.523l3.414-.013a1.522 1.522 0 001.512-1.523 1.522 1.522 0 00-1.523-1.511z" fill="#EDD8E2"/><path fill-rule="evenodd" clip-rule="evenodd" d="M202.06 210.516h-.002l-17.624.068a.31.31 0 00-.223.095.318.318 0 00-.094.222.323.323 0 00.318.317h.001l17.626-.068a.31.31 0 00.222-.095.319.319 0 00.094-.223.324.324 0 00-.318-.316zm-17.625 3.102a2.721 2.721 0 01-2.718-2.707 2.697 2.697 0 01.791-1.923 2.697 2.697 0 011.916-.804l17.626-.068h.01a2.723 2.723 0 012.718 2.706 2.707 2.707 0 01-.79 1.924 2.7 2.7 0 01-1.918.804l-17.625.068h-.01z" fill="#6C7083"/><path fill-rule="evenodd" clip-rule="evenodd" d="M341.056 296.611c.156-.492.288-.995.396-1.507l.328-1.57-.328 1.57c-.108.512-.24 1.015-.396 1.507z" fill="#B6B5B1"/><path fill-rule="evenodd" clip-rule="evenodd" d="M341.78 293.534l2.463-11.742v.002l-2.463 11.74z" fill="#96A4A9"/><path fill-rule="evenodd" clip-rule="evenodd" d="M320.983 303.944l-6.693-1.404a12.817 12.817 0 01-8.338-5.9c6.583-8.773 16.786-14.681 28.374-15.473l-2.498 11.92c-1.173 5.593-5.573 9.726-10.845 10.857z" fill="#A08A9E"/><path fill-rule="evenodd" clip-rule="evenodd" d="M326.524 304.828a12.9 12.9 0 01-2.637-.275l-2.904-.609c5.272-1.131 9.672-5.264 10.845-10.857l2.498-11.92a37.04 37.04 0 017.546.24l-2.769 13.205c-.702 3.344-2.676 6.223-5.558 8.108a12.81 12.81 0 01-7.021 2.108z" fill="#A89CA6"/><path fill-rule="evenodd" clip-rule="evenodd" d="M326.532 307.229l-.098-.001a15.161 15.161 0 01-3.039-.327l-9.599-2.012-.046-.01-.016-.003-.031-.006-.024-.006-.022-.005c-.011-.001-.021-.004-.031-.006a.127.127 0 01-.014-.004l-.039-.008-.007-.001a.566.566 0 00-.044-.011c-3.802-.87-6.944-3.115-9.04-6.089.468-.716.959-1.417 1.47-2.1a12.817 12.817 0 008.338 5.9l6.693 1.404 2.904.609a12.9 12.9 0 002.637.275 12.81 12.81 0 007.021-2.108c2.882-1.885 4.856-4.764 5.558-8.108l2.769-13.205c.795.106 1.586.235 2.371.387l-2.791 13.31c-.108.512-.24 1.015-.396 1.507-1.059 3.328-3.22 6.172-6.198 8.118a15.21 15.21 0 01-8.326 2.5z" fill="#535662"/><path fill-rule="evenodd" clip-rule="evenodd" d="M377.099 323.231c0 20.876-16.924 37.8-37.8 37.8-20.877 0-37.8-16.924-37.8-37.8 0-20.877 16.923-37.8 37.8-37.8 20.876 0 37.8 16.923 37.8 37.8z" fill="#FFFFFE"/><path fill-rule="evenodd" clip-rule="evenodd" d="M417.505 334.148c-.663 0-1.2-.536-1.2-1.2 0-14.516-11.81-26.326-26.328-26.326-14.516 0-26.328 11.81-26.328 26.326a1.2 1.2 0 11-2.4 0c0-15.84 12.888-28.726 28.728-28.726 15.84 0 28.728 12.886 28.728 28.726 0 .664-.537 1.2-1.2 1.2zM311.449 323.948a1.2 1.2 0 01-1.2-1.2c0-7.671 2.989-14.886 8.415-20.312 5.426-5.426 12.639-8.414 20.313-8.414a1.199 1.199 0 110 2.4c-7.033 0-13.644 2.738-18.617 7.711-4.971 4.973-7.711 11.585-7.711 18.615 0 .664-.536 1.2-1.2 1.2z" fill="#6C7083"/><path fill-rule="evenodd" clip-rule="evenodd" d="M456.786 355.477h-19.924v-1.2c0-10.808-8.793-19.601-19.599-19.601a1.199 1.199 0 110-2.4c11.727 0 21.342 9.226 21.966 20.801h17.557a1.199 1.199 0 110 2.4zM301.794 324.077c-.662 0-1.2-.538-1.2-1.2 0-21.394 17.406-38.8 38.8-38.8 16.263 0 30.921 10.263 36.475 25.54a1.2 1.2 0 01-2.256.821c-5.211-14.332-18.961-23.961-34.219-23.961-20.072 0-36.4 16.329-36.4 36.4 0 .662-.538 1.2-1.2 1.2z" fill="#6C7083"/><defs><linearGradient id="paint0_linear" x1="220.381" y1="75.352" x2="289.87" y2="345.531" gradientUnits="userSpaceOnUse"><stop stop-color="#1BDBB6"/><stop offset=".654" stop-color="#15DA97"/><stop offset=".829" stop-color="#0ED973"/><stop offset="1" stop-color="#00D727"/></linearGradient><linearGradient id="paint1_linear" x1="235.044" y1="74.615" x2="334.535" y2="314.603" gradientUnits="userSpaceOnUse"><stop stop-color="#1BDBB6"/><stop offset=".654" stop-color="#15DA97"/><stop offset=".829" stop-color="#0ED973"/><stop offset="1" stop-color="#00D727"/></linearGradient><linearGradient id="paint2_linear" x1="295.502" y1="77.402" x2="389.127" y2="327.34" gradientUnits="userSpaceOnUse"><stop stop-color="#1BDBB6"/><stop offset=".654" stop-color="#15DA97"/><stop offset=".829" stop-color="#0ED973"/><stop offset="1" stop-color="#00D727"/></linearGradient><linearGradient id="paint3_linear" x1="289.986" y1="224.092" x2="295.052" y2="267.099" gradientUnits="userSpaceOnUse"><stop stop-color="#1BDBB6"/><stop offset=".654" stop-color="#15DA97"/><stop offset=".829" stop-color="#0ED973"/><stop offset="1" stop-color="#00D727"/></linearGradient><linearGradient id="paint4_linear" x1="134.745" y1="125.571" x2="164.836" y2="242.516" gradientUnits="userSpaceOnUse"><stop stop-color="#1BDBB6"/><stop offset=".654" stop-color="#15DA97"/><stop offset=".829" stop-color="#0ED973"/><stop offset="1" stop-color="#00D727"/></linearGradient><linearGradient id="paint5_linear" x1="142.752" y1="125.303" x2="191.829" y2="223.649" gradientUnits="userSpaceOnUse"><stop stop-color="#1BDBB6"/><stop offset=".654" stop-color="#15DA97"/><stop offset=".829" stop-color="#0ED973"/><stop offset="1" stop-color="#00D727"/></linearGradient><linearGradient id="paint6_linear" x1="178.8" y1="125.893" x2="227.368" y2="230.471" gradientUnits="userSpaceOnUse"><stop stop-color="#1BDBB6"/><stop offset=".654" stop-color="#15DA97"/><stop offset=".829" stop-color="#0ED973"/><stop offset="1" stop-color="#00D727"/></linearGradient><linearGradient id="paint7_linear" x1="174.174" y1="192.462" x2="175.028" y2="204.055" gradientUnits="userSpaceOnUse"><stop stop-color="#1BDBB6"/><stop offset=".654" stop-color="#15DA97"/><stop offset=".829" stop-color="#0ED973"/><stop offset="1" stop-color="#00D727"/></linearGradient></defs></svg>