<svg width="21" height="21" viewBox="0 0 21 21" fill="none" xmlns="http://www.w3.org/2000/svg">
<g id="instagram copy 2">
<g id="instagram">
<path id="Shape" fill-rule="evenodd" clip-rule="evenodd" d="M4.55777 0.875366H16.1822C18.4424 0.875366 20.2993 2.73198 20.2993 4.99246V6.2136H14.0432C13.0324 5.40077 11.7532 4.91156 10.37 4.91156C8.98673 4.91156 7.70721 5.40077 6.69642 6.2136H0.440674V4.99246C0.440674 2.73229 2.29728 0.875366 4.55777 0.875366ZM3.62375 17.6337C4.00034 17.6337 4.30586 17.9392 4.30586 18.3158C4.30586 18.9998 3.41023 19.2505 3.04824 18.6823C2.76271 18.2359 3.08092 17.6337 3.62375 17.6337ZM20.2993 6.70345V16.6169C20.2993 18.8771 18.4427 20.734 16.1822 20.734H4.55777C2.2976 20.734 0.440674 18.8774 0.440674 16.6169V6.70345H6.15771C5.12059 7.76817 4.47718 9.21806 4.47718 10.8044C4.47718 14.0331 7.1409 16.6972 10.37 16.6972C13.5987 16.6972 16.2628 14.0334 16.2628 10.8044C16.2628 9.21806 15.6197 7.76817 14.5823 6.70345H20.2993ZM10.37 10.9344H5.99718C5.99718 13.3494 7.95468 15.3069 10.37 15.3069C12.7853 15.3069 14.7428 13.3494 14.7428 10.9344H10.37ZM10.37 5.71867C13.1955 5.71867 15.4557 7.97884 15.4557 10.8044C15.4557 13.6299 13.1955 15.8901 10.37 15.8901C7.54446 15.8901 5.28429 13.6299 5.28429 10.8044C5.28429 7.97884 7.54446 5.71867 10.37 5.71867Z" fill="white"/>
</g>
</g>
</svg>
