<svg width="168" height="26" viewBox="0 0 168 26" fill="none" xmlns="http://www.w3.org/2000/svg"><path d="M15.364.836H.784V26h14.58v-4.104h-9.54v-6.66h8.46V11.24h-8.46v-6.3h9.54V.836zm4.303.036V26h13.32v-3.996h-8.28V.872h-5.04zM50.494.836h-14.58V26h14.58v-4.104h-9.54v-6.66h8.46V11.24h-8.46v-6.3h9.54V.836zm14.635 20.016L58.217.872h-5.4L62.033 26h6.12L77.369.872h-5.364l-6.876 19.98zM97.178 26h5.328L93.47.836h-5.868L78.566 26h5.292l1.656-4.788h10.008L97.178 26zm-3.024-8.82h-7.272l3.636-10.512 3.636 10.512zm10.12-12.24h6.696V26h5.04V4.94h6.696V.872h-18.432V4.94zM140.687.836h-14.58V26h14.58v-4.104h-9.54v-6.66h8.46V11.24h-8.46v-6.3h9.54V.836zm13.087.036h-8.784V26h8.784c8.028 0 13.248-4.932 13.248-12.528 0-7.632-5.22-12.6-13.248-12.6zm-3.744 20.844V5.12h3.564c5.292 0 8.28 3.132 8.28 8.352 0 5.22-2.988 8.244-8.28 8.244h-3.564z" fill="#26183C"/></svg>