<svg width="12" height="13" viewBox="0 0 12 13" fill="none" xmlns="http://www.w3.org/2000/svg">
<path fill-rule="evenodd" clip-rule="evenodd" d="M6.49829 7.23975C6.49829 7.53882 6.25584 7.78127 5.95676 7.78127C5.65769 7.78127 5.41524 7.53882 5.41524 7.23975V1.61721C5.41524 1.31813 5.65769 1.07568 5.95676 1.07568C6.25584 1.07568 6.49829 1.31813 6.49829 1.61721V7.23975ZM7.41749 12.65C9.97274 11.985 11.7564 9.67809 11.7567 7.03773C11.7624 5.45523 11.1161 3.94024 9.96989 2.84912C9.83027 2.71515 9.62978 2.66583 9.44394 2.71976C9.2581 2.77369 9.11515 2.92266 9.06893 3.11056C9.02272 3.29847 9.08026 3.49675 9.21988 3.63073C10.6109 4.96323 11.052 7.00769 10.334 8.79517C9.61601 10.5826 7.88326 11.7539 5.95698 11.7539C4.03069 11.7539 2.29795 10.5826 1.57996 8.79517C0.861973 7.00769 1.30302 4.96323 2.69408 3.63073C2.90991 3.42362 2.91699 3.08076 2.70988 2.86492C2.50277 2.64909 2.1599 2.64201 1.94406 2.84912C0.0376114 4.67585 -0.394452 7.55968 0.89294 9.86491C2.18033 12.1702 4.86224 13.3149 7.41749 12.65Z" fill="url(#paint0_linear)"/>
<path d="M11.7567 7.03773L11.6567 7.03737V7.03772L11.7567 7.03773ZM9.96989 2.84912L9.90065 2.92128L9.90094 2.92155L9.96989 2.84912ZM9.06893 3.11056L8.97183 3.08668L9.06893 3.11056ZM9.21988 3.63073L9.15064 3.70289L9.1507 3.70295L9.21988 3.63073ZM1.57996 8.79517L1.67275 8.75789L1.57996 8.79517ZM2.69408 3.63073L2.76325 3.70295L2.76331 3.70289L2.69408 3.63073ZM2.70988 2.86492L2.78203 2.79568V2.79568L2.70988 2.86492ZM1.94406 2.84912L2.01325 2.92133L2.0133 2.92128L1.94406 2.84912ZM0.89294 9.86491L0.980248 9.81616L0.89294 9.86491ZM5.95676 7.88127C6.31107 7.88127 6.59829 7.59405 6.59829 7.23975H6.39829C6.39829 7.48359 6.20061 7.68127 5.95676 7.68127V7.88127ZM5.31524 7.23975C5.31524 7.59405 5.60246 7.88127 5.95676 7.88127V7.68127C5.71291 7.68127 5.51524 7.48359 5.51524 7.23975H5.31524ZM5.31524 1.61721V7.23975H5.51524V1.61721H5.31524ZM5.95676 0.975684C5.60246 0.975684 5.31524 1.2629 5.31524 1.61721H5.51524C5.51524 1.37336 5.71291 1.17568 5.95676 1.17568V0.975684ZM6.59829 1.61721C6.59829 1.2629 6.31107 0.975684 5.95676 0.975684V1.17568C6.20061 1.17568 6.39829 1.37336 6.39829 1.61721H6.59829ZM6.59829 7.23975V1.61721H6.39829V7.23975H6.59829ZM11.6567 7.03772C11.6564 9.63255 9.90349 11.8997 7.3923 12.5532L7.44267 12.7467C10.042 12.0703 11.8564 9.72363 11.8567 7.03774L11.6567 7.03772ZM9.90094 2.92155C11.0272 3.99371 11.6623 5.48237 11.6567 7.03737L11.8567 7.03809C11.8625 5.42809 11.205 3.88677 10.0388 2.77669L9.90094 2.92155ZM9.47181 2.8158C9.62334 2.77183 9.78681 2.81204 9.90065 2.92128L10.0391 2.77697C9.87373 2.61826 9.63622 2.55984 9.41607 2.62372L9.47181 2.8158ZM9.16604 3.13445C9.20372 2.98124 9.32028 2.85977 9.47181 2.8158L9.41607 2.62372C9.19592 2.68761 9.02658 2.86408 8.97183 3.08668L9.16604 3.13445ZM9.28912 3.55858C9.17527 3.44934 9.12836 3.28766 9.16604 3.13445L8.97183 3.08668C8.91708 3.30928 8.98524 3.54417 9.15064 3.70289L9.28912 3.55858ZM10.4268 8.83244C11.16 7.00707 10.7096 4.91926 9.28905 3.55852L9.1507 3.70295C10.5123 5.00719 10.944 7.00831 10.2412 8.75789L10.4268 8.83244ZM5.95698 11.8539C7.9241 11.8539 9.69358 10.6578 10.4268 8.83244L10.2412 8.75789C9.53843 10.5075 7.84243 11.6539 5.95698 11.6539V11.8539ZM1.48717 8.83244C2.22038 10.6578 3.98985 11.8539 5.95698 11.8539V11.6539C4.07153 11.6539 2.37552 10.5075 1.67275 8.75789L1.48717 8.83244ZM2.6249 3.55852C1.20436 4.91926 0.753958 7.00707 1.48717 8.83244L1.67275 8.75789C0.969989 7.00831 1.40169 5.00719 2.76325 3.70295L2.6249 3.55852ZM2.63772 2.93416C2.80659 3.11014 2.80082 3.38971 2.62484 3.55858L2.76331 3.70289C3.019 3.45754 3.02738 3.05137 2.78203 2.79568L2.63772 2.93416ZM2.0133 2.92128C2.18929 2.7524 2.46885 2.75817 2.63772 2.93416L2.78203 2.79568C2.53668 2.54 2.13051 2.53162 1.87483 2.77697L2.0133 2.92128ZM0.980248 9.81616C-0.284947 7.55067 0.139666 4.71656 2.01325 2.92133L1.87488 2.77692C-0.0644435 4.63514 -0.503956 7.56869 0.805633 9.91367L0.980248 9.81616ZM7.3923 12.5532C4.88111 13.2067 2.24544 12.0816 0.980248 9.81616L0.805633 9.91367C2.11522 12.2587 4.84337 13.4232 7.44267 12.7467L7.3923 12.5532Z" fill="url(#paint1_linear)"/>
<defs>
<linearGradient id="paint0_linear" x1="-2.06523" y1="3.18055" x2="2.19563" y2="19.4193" gradientUnits="userSpaceOnUse">
<stop stop-color="#1BDBB6"/>
<stop offset="0.654365" stop-color="#15DA97"/>
<stop offset="0.828781" stop-color="#0ED973"/>
<stop offset="1" stop-color="#00D727"/>
</linearGradient>
<linearGradient id="paint1_linear" x1="-2.06523" y1="3.18055" x2="2.19563" y2="19.4193" gradientUnits="userSpaceOnUse">
<stop stop-color="#1BDBB6"/>
<stop offset="0.654365" stop-color="#15DA97"/>
<stop offset="0.828781" stop-color="#0ED973"/>
<stop offset="1" stop-color="#00D727"/>
</linearGradient>
</defs>
</svg>
