<svg xmlns="http://www.w3.org/2000/svg" viewBox="0 0 210.9 43.2"><path d="M51.4 18.1v6.6h9v3.9h-9v6.8h10.1v4.1H46.3V14.1h15.2v4H51.4zM70 35.6h8.5v3.9H64.9V14.1H70v21.5zm16.4-17.5v6.6h9v3.9h-9v6.8h10.1v4.1H81.3V14.1h15.2v4H86.4zm17.1-4l6.8 20.1 6.8-20.1h5.4l-9 25.4H107l-9-25.4h5.5zm37 20.3h-10.2l-1.8 5.1h-5.4l9.4-25.1h5.8l9.3 25.1h-5.4l-1.7-5.1zm-1.4-3.9l-3.7-10.7-3.7 10.7h7.4zm28.3-16.4v4h-7v21.4h-5.1V18.1h-7v-4h19.1zm7.6 4v6.6h9v3.9h-9v6.8h10.1v4.1h-15.2V14.1h15.2v4H175zm35.9 8.7c0 2.5-.5 4.7-1.6 6.7-1.1 1.9-2.6 3.4-4.6 4.5-2 1.1-4.4 1.6-7.1 1.6h-9V14.1h9c2.8 0 5.1.5 7.1 1.6 2 1 3.6 2.5 4.6 4.4 1.1 1.9 1.6 4.1 1.6 6.7zM197.1 35c2.7 0 4.8-.7 6.3-2.2 1.5-1.4 2.3-3.5 2.3-6 0-2.6-.8-4.6-2.3-6.1-1.5-1.4-3.6-2.2-6.3-2.2h-3.5V35h3.5z" fill="#fff"/><path fill="none" d="M0 0h31.5v43.2H0z"/></svg>