<svg width="33" height="28" viewBox="0 0 33 28" fill="none" xmlns="http://www.w3.org/2000/svg">
<rect width="33" height="28" fill="white" fill-opacity="0.01"/>
<path fill-rule="evenodd" clip-rule="evenodd" d="M22.1877 0.72938L32.8448 11.6968C33.0532 11.914 33.0515 12.2638 32.8411 12.4789L29.7968 15.6124C29.6958 15.7164 29.5588 15.7748 29.416 15.7748C29.2731 15.7748 29.1361 15.7164 29.0352 15.6124L28.6584 15.2219L26.9156 17.0154L28.2461 18.3337C28.8661 18.9663 29.0541 19.9213 28.7222 20.7524C28.3903 21.5834 27.604 22.1264 26.731 22.1274C26.5531 22.1249 26.3763 22.0994 26.2046 22.0516C26.1171 23.1995 25.1856 24.0845 24.0667 24.0827C23.8891 24.0805 23.7125 24.0557 23.5408 24.0091C23.5029 24.5321 23.2834 25.0237 22.9224 25.3939C22.3913 25.9512 21.6094 26.1704 20.8771 25.9671C20.8394 26.4901 20.6201 26.9817 20.2592 27.3519C19.8552 27.7655 19.309 27.9984 18.7392 28C18.168 28.0011 17.62 27.7669 17.2176 27.3497L17.0373 27.1736C16.6376 27.5631 16.1086 27.781 15.5582 27.7829C14.4388 27.7887 13.5059 26.9021 13.4225 25.7533C12.7784 25.9314 12.0905 25.7886 11.5639 25.3676C11.0372 24.9466 10.7326 24.296 10.741 23.6097C10.741 23.58 10.7447 23.551 10.7484 23.5219C10.751 23.5016 10.7536 23.4812 10.755 23.4607C10.7355 23.4621 10.7161 23.4646 10.6967 23.4671C10.6684 23.4709 10.6402 23.4746 10.6118 23.4746C9.42275 23.4746 8.45884 22.4826 8.45884 21.2589C8.45884 21.2296 8.46267 21.2009 8.4665 21.172C8.46926 21.1513 8.47202 21.1305 8.47338 21.1094C8.45369 21.1107 8.4341 21.1134 8.41449 21.1161C8.38637 21.1199 8.3582 21.1238 8.32967 21.1238C7.46151 21.1214 6.67971 20.5826 6.34695 19.7574C6.01419 18.9322 6.19559 17.9821 6.80699 17.3478L6.9437 17.2071L4.35154 14.6502L3.96509 15.0479C3.75491 15.2642 3.4142 15.2642 3.20402 15.0479L0.157589 11.9128C-0.0525297 11.6965 -0.0525297 11.3459 0.157589 11.1296L10.8147 0.162177C11.0249 -0.054059 11.3656 -0.054059 11.5758 0.162177L14.6222 3.2973C14.8323 3.5136 14.8323 3.86423 14.6222 4.08053L14.2503 4.46273L15.5152 5.72176L18.6735 4.94629L18.3818 4.64607C18.1717 4.42977 18.1717 4.07915 18.3818 3.86284L21.4266 0.72938C21.6401 0.521596 21.9742 0.521596 22.1877 0.72938ZM1.29704 11.5212L3.5824 13.8731L13.4785 3.68892L11.1931 1.33702L1.29704 11.5212ZM7.57236 19.6963C7.36861 19.4894 7.25369 19.2072 7.25319 18.9126C7.25268 18.618 7.36663 18.3354 7.56967 18.1277L10.6156 14.9942C11.0345 14.5638 11.7126 14.5623 12.1334 14.9909C12.3371 15.1978 12.452 15.48 12.4526 15.7745C12.4532 16.0691 12.3395 16.3517 12.1366 16.5596L9.0902 19.6947C8.67078 20.1247 7.99268 20.1254 7.57236 19.6963ZM9.53528 21.2613C9.53588 21.5558 9.6508 21.838 9.8545 22.0449C10.2753 22.4735 10.9534 22.472 11.3723 22.0416L15.1777 18.1255C15.3826 17.9205 15.4985 17.6392 15.4991 17.3451C15.4997 17.0511 15.385 16.7692 15.1809 16.5634C14.9794 16.3546 14.7054 16.2369 14.4194 16.2363C14.1335 16.2357 13.859 16.3522 13.6566 16.5601L9.85127 20.4762C9.64843 20.6841 9.53467 20.9667 9.53528 21.2613ZM13.6598 24.3902C13.2348 24.8107 12.5634 24.8122 12.1366 24.3935C11.9329 24.1865 11.818 23.9044 11.8174 23.6098C11.8168 23.3153 11.9306 23.0327 12.1334 22.8248L15.1798 19.6897C15.5988 19.2592 16.2769 19.2578 16.6977 19.6864C16.9014 19.8943 17.0162 20.1772 17.0168 20.4725C17.0175 20.7678 16.9038 21.0512 16.7009 21.26L13.6598 24.3902ZM14.7977 26.3493C15.2207 26.781 15.9027 26.781 16.3257 26.3493L18.6063 24.0035C18.672 23.9362 18.7284 23.8598 18.7736 23.7764C18.7806 23.7587 18.7887 23.7415 18.7973 23.7238C18.8791 23.5695 18.922 23.3966 18.9222 23.2209C18.9215 22.9238 18.8068 22.6391 18.603 22.4288C18.1833 22 17.506 22 17.0863 22.4288L14.7977 24.784C14.5954 24.9913 14.4817 25.2729 14.4817 25.5667C14.4817 25.8604 14.5954 26.1421 14.7977 26.3493ZM19.5013 26.567C19.0713 26.9867 18.3962 26.9825 17.9711 26.5576L17.8048 26.3953L19.3286 24.8272L19.5132 25.0161C19.7119 25.2232 19.8223 25.5031 19.8201 25.7941C19.8178 26.0851 19.7032 26.3632 19.5013 26.567ZM25.9715 20.695C26.3982 21.1146 27.0705 21.1134 27.4958 20.6923C27.6978 20.4837 27.8108 20.2011 27.8099 19.9066C27.809 19.6122 27.6942 19.3302 27.491 19.123L18.0018 9.72154C17.7906 9.51241 17.4557 9.51561 17.2483 9.72874L14.7977 12.2507C13.9455 13.0856 12.6067 13.0856 11.7545 12.2507C11.3496 11.8352 11.1224 11.2707 11.1231 10.6823C11.1238 10.0939 11.3524 9.53005 11.7582 9.11557L14.5194 6.27346L13.4871 5.2454L5.15406 13.8216L5.10669 13.8698L7.69885 16.4266L9.8518 14.211C10.415 13.6326 11.2423 13.421 12.0031 13.6608C12.7639 13.9006 13.3341 14.5527 13.486 15.3565C14.3069 14.9475 15.2893 15.1167 15.9361 15.7785C16.5923 16.4375 16.7602 17.457 16.3516 18.3016C16.9322 18.4174 17.4405 18.7748 17.7565 19.2893C18.0724 19.8038 18.1678 20.4297 18.0201 21.0191C18.5275 21.0572 19.0048 21.281 19.3657 21.65C19.7697 22.0673 19.9967 22.6323 19.9971 23.2214C19.9924 23.4332 19.9561 23.643 19.8894 23.8435L20.643 24.6134C21.068 25.033 21.739 25.033 22.164 24.6134C22.3678 24.4076 22.4826 24.1262 22.4827 23.8324C22.4835 23.5358 22.3687 23.2513 22.164 23.0425L21.2329 22.0842C21.0223 21.8681 21.0218 21.5172 21.2318 21.3005C21.4418 21.0837 21.7828 21.0832 21.9934 21.2994L22.9245 22.2576L23.3067 22.6509C23.7299 23.0701 24.399 23.0716 24.824 22.6542C25.0292 22.4486 25.1454 22.1666 25.1464 21.8719C25.1475 21.5771 25.0332 21.2943 24.8294 21.0872L23.515 19.734C23.311 19.5167 23.3139 19.1712 23.5215 18.9575C23.7292 18.7439 24.0649 18.7409 24.2761 18.9508L25.9715 20.695ZM27.8979 14.4403L26.1411 16.2483L18.7484 8.92336C18.1129 8.30053 17.1115 8.31035 16.4877 8.94552L14.035 11.4675C13.6082 11.8873 12.9355 11.8856 12.5107 11.4636C12.3099 11.2561 12.1974 10.975 12.198 10.6822C12.1986 10.3893 12.3123 10.1087 12.5139 9.90212L15.4032 6.92873C15.5117 6.92378 15.6162 6.88516 15.703 6.81795L19.5659 5.868L27.8979 14.4403ZM19.525 4.25501L29.4195 14.4403L31.7032 12.0884L21.8088 1.90478L19.525 4.25501Z" fill="url(#paint0_linear)"/>
<defs>
<linearGradient id="paint0_linear" x1="29.0298" y1="20.2006" x2="29.0298" y2="-1.06196" gradientUnits="userSpaceOnUse">
<stop stop-color="#A163F5"/>
<stop offset="1" stop-color="#EFBAD3"/>
</linearGradient>
</defs>
</svg>
