<svg width="24" height="37" viewBox="0 0 24 37" fill="none" xmlns="http://www.w3.org/2000/svg"><path d="M11.827.493a7.398 7.398 0 00-7.392 7.392v10.841a7.398 7.398 0 007.392 7.392 7.398 7.398 0 007.392-7.392V7.885A7.398 7.398 0 0011.827.493zm0 1.97c3.02 0 5.421 2.402 5.421 5.422v10.841c0 3.02-2.4 5.421-5.42 5.421s-5.422-2.4-5.422-5.42V7.884c0-3.02 2.401-5.421 5.421-5.421zM0 14.8v3.943a11.813 11.813 0 0010.842 11.78v4.467H6.899a.986.986 0 100 1.97h9.856a.986.986 0 100-1.97h-3.942v-4.466c6.076-.498 10.842-5.576 10.842-11.781v-3.943h-1.972v3.943a9.813 9.813 0 01-9.856 9.856 9.813 9.813 0 01-9.856-9.856v-3.943H0z" fill="#fff"/></svg>