<svg width="103" height="123" viewBox="0 0 103 123" fill="none" xmlns="http://www.w3.org/2000/svg"><g opacity=".65"><path d="M36.397 33.352l32.717 32.653c8.579.09 17.186-3.132 23.733-9.665 12.914-12.889 12.914-33.785 0-46.674-12.915-12.888-33.852-12.888-46.767 0-6.546 6.534-9.773 15.124-9.683 23.686z" fill="#EEE"/><path fill-rule="evenodd" clip-rule="evenodd" d="M37.093 30.656a2.4 2.4 0 00-3.39 0L23.53 40.808a2.401 2.401 0 000 3.398l4.726 4.716-24.278 24.23a12.823 12.823 0 00-3.79 9.137c0 3.453 1.346 6.698 3.79 9.137l1.775 1.771-.303.302a15.936 15.936 0 00-4.712 11.354c0 4.289 1.674 8.321 4.712 11.353a16.042 16.042 0 0011.369 4.693 16.05 16.05 0 0011.369-4.693L50.62 93.817a4.9 4.9 0 016.913 0 4.831 4.831 0 011.429 3.443 4.83 4.83 0 01-1.43 3.442l-18.114 18.079a2.401 2.401 0 003.39 3.398L60.923 104.1a9.601 9.601 0 002.838-6.84 9.6 9.6 0 00-2.838-6.84c-3.775-3.768-9.918-3.768-13.694 0l-22.433 22.389c-4.399 4.39-11.557 4.39-15.956 0a11.168 11.168 0 01-3.302-7.956c0-3.005 1.173-5.83 3.302-7.956l.31-.309 1.793 1.79a12.895 12.895 0 009.137 3.771c3.309 0 6.618-1.257 9.137-3.771L53.513 74.13l4.732 4.723a2.392 2.392 0 001.696.701c.613 0 1.226-.234 1.695-.701L71.808 68.7a2.401 2.401 0 000-3.397L37.093 30.655zM25.827 94.98c-3.169 3.162-8.325 3.162-11.493 0L7.37 88.028a8.056 8.056 0 01-2.381-5.74c0-2.168.846-4.206 2.381-5.739l24.284-24.236 18.463 18.426-24.29 24.241zm2.796-52.473l31.318 31.256 6.775-6.761-31.318-31.256-6.775 6.76z" fill="#C9C9C9"/><path d="M94.131 53.662L48.757 8.377a2.4 2.4 0 00-3.39 3.398L90.74 57.06a2.393 2.393 0 001.695.701 2.4 2.4 0 001.695-4.099z" fill="#C9C9C9"/><path fill-rule="evenodd" clip-rule="evenodd" d="M27.528 64.68a2.4 2.4 0 013.391 0l6.798 6.785a2.401 2.401 0 010 3.397L27.115 85.444a2.393 2.393 0 01-1.696.701 2.393 2.393 0 01-1.695-.701l-6.798-6.785a2.401 2.401 0 010-3.397L27.528 64.68zm-5.51 12.28l3.401 3.394 7.205-7.19-3.4-3.395-7.205 7.191z" fill="#C9C9C9"/></g></svg>