<svg width="17" height="22" viewBox="0 0 17 22" fill="none" xmlns="http://www.w3.org/2000/svg">
<path fill-rule="evenodd" clip-rule="evenodd" d="M10.1772 5.88498C9.98752 5.29599 10.3022 4.62101 10.6436 3.88854C10.8699 3.40323 11.1079 2.89268 11.2187 2.3652C11.3654 1.66741 11.2132 1.16364 11.0293 1.06992C10.5672 0.834294 10.3189 1.09033 10.0865 1.32994C9.88144 1.54141 9.68876 1.74008 9.37249 1.57671C9.26324 1.52025 9.20352 1.32137 9.13192 1.08295C8.99199 0.616989 8.80671 0 8.11771 0C7.33996 0 7.12623 0.621705 6.97198 1.07039L6.97198 1.0704C6.91971 1.22244 6.87427 1.35461 6.81603 1.436C6.5904 1.75153 6.10121 1.69767 5.62331 1.64506C5.12052 1.5897 4.63024 1.53572 4.47258 1.91475C4.11946 2.76338 4.75075 3.83824 5.26981 4.72202C5.58688 5.26187 5.86207 5.73043 5.84543 6.03256C5.7745 7.32097 10.5411 7.01481 10.1772 5.88498ZM16.9943 15.4307C16.8524 10.7844 12.5916 7.65902 10.8518 7.1099C10.0351 8.4192 6.76843 8.63055 5.59683 7.40562C3.9636 7.70134 0.199951 10.9534 0.199951 15.7262C0.199951 20.5412 2.18829 21.5127 8.40189 21.5968C14.6155 21.6815 17.1364 20.0765 16.9943 15.4307ZM8.40189 18.9782V17.2146C9.53815 16.9415 9.89326 16.1972 9.89349 15.3494C9.89349 14.1108 9.09578 13.7213 8.43688 13.3996C7.97331 13.1732 7.57846 12.9804 7.57846 12.5491C7.57846 11.7482 8.79581 11.8257 9.51458 12.2369L9.66083 11.0733C9.38658 10.9265 8.97025 10.8001 8.40212 10.7663V9.8552H7.55004V10.8273C6.12961 11.2458 5.53814 13.6366 7.75405 14.5551C8.39819 14.8297 8.72373 15.0564 8.72373 15.4541C8.72373 16.3992 7.38739 16.2489 6.56396 15.7473L6.19314 16.9393C6.4891 17.1336 6.98168 17.318 7.54981 17.3257V18.9782H8.40189Z" fill="url(#paint0_linear)"/>
<defs>
<linearGradient id="paint0_linear" x1="-3.01785" y1="3.86549" x2="6.53059" y2="32.5635" gradientUnits="userSpaceOnUse">
<stop stop-color="#1BDBB6"/>
<stop offset="0.654365" stop-color="#15DA97"/>
<stop offset="0.828781" stop-color="#0ED973"/>
<stop offset="1" stop-color="#00D727"/>
</linearGradient>
</defs>
</svg>
