<svg width="106" height="97" viewBox="0 0 106 97" fill="none" xmlns="http://www.w3.org/2000/svg"><path opacity=".603" d="M27.985 76.666c-6.913 0-13.061-4.426-15.294-11.015l-.151-.497c-.527-1.745-.747-3.212-.747-4.68V31.031L1.316 66C-.03 71.143 3.04 76.476 8.191 77.896l66.77 17.882c.834.216 1.667.32 2.488.32 4.3 0 8.23-2.855 9.331-7.061l3.89-12.37H27.985z" fill="#fff" stroke="#A0BBC0" stroke-width="1.42"/><path d="M104.631 10.815v49.658c0 5.355-4.361 9.716-9.716 9.716h-66.93c-.431 0-.863-.043-1.252-.087-4.534-.56-8.075-4.274-8.42-8.851-.043-.26-.043-.52-.043-.778V10.815c0-5.354 4.36-9.715 9.715-9.715h66.93c5.355 0 9.716 4.36 9.716 9.715z" fill="#fff" stroke="#A0BBC0" stroke-width="1.42"/><path d="M48.496 22.69a8.636 8.636 0 11-17.273 0 8.636 8.636 0 0117.273 0z" fill="#F6E593"/><path d="M104.631 48.34v12.133c0 5.355-4.361 9.716-9.716 9.716h-66.93c-.431 0-.863-.043-1.252-.087l44.476-44.475c2.936-2.937 7.772-2.937 10.709 0l22.713 22.712z" fill="#55DBC9"/><path d="M78.981 70.189H27.985c-.431 0-.863-.043-1.252-.087-4.534-.56-8.074-4.274-8.42-8.851l20.51-20.512c2.937-2.935 7.773-2.935 10.71 0L78.98 70.19z" fill="#55DBC9"/></svg>