<svg width="33" height="28" viewBox="0 0 33 28" fill="none" xmlns="http://www.w3.org/2000/svg">
<rect width="33" height="28" fill="white" fill-opacity="0.01"/>
<path fill-rule="evenodd" clip-rule="evenodd" d="M25.8193 26.6V0.7C25.8193 0.313425 25.4938 0 25.0924 0H17.8232C17.4218 0 17.0963 0.313425 17.0963 0.7V26.6H15.6425V10.5C15.6425 10.1134 15.317 9.8 14.9156 9.8H7.6465C7.24506 9.8 6.91959 10.1134 6.91959 10.5V26.6L5 26.5779V27.9779L28 28V26.6H25.8193ZM8.37341 26.6V11.2H14.1887V26.6H8.37341ZM18.5502 1.4V26.6H24.3654V1.4H18.5502Z" fill="url(#paint0_linear)"/>
<defs>
<linearGradient id="paint0_linear" x1="-0.239918" y1="-12.7581" x2="-0.239918" y2="28" gradientUnits="userSpaceOnUse">
<stop stop-color="#FFEDEF"/>
<stop offset="0.188328" stop-color="#FBCCD2"/>
<stop offset="1" stop-color="#EF6D7D"/>
</linearGradient>
</defs>
</svg>
