<svg width="14" height="14" viewBox="0 0 14 14" fill="none" xmlns="http://www.w3.org/2000/svg">
<rect x="1" y="1" width="11.9135" height="11.9135" fill="#D8D8D8" fill-opacity="0.01"/>
<path d="M6.84579 3.62097C5.79019 3.62097 4.93152 4.47964 4.93152 5.53524C4.93152 6.59083 5.79019 7.44951 6.84579 7.44951C7.90138 7.44951 8.76005 6.59083 8.76005 5.53524C8.76005 4.47964 7.90138 3.62097 6.84579 3.62097Z" fill="url(#paint0_linear)" stroke="url(#paint1_linear)" stroke-width="0.2"/>
<path fill-rule="evenodd" clip-rule="evenodd" d="M1 6.95677C1 3.67216 3.67216 1 6.95677 1C10.2414 1 12.9135 3.67216 12.9135 6.95677C12.9135 8.67936 12.1684 10.3166 10.8686 11.4488C9.78531 12.3934 8.39596 12.9135 6.95677 12.9135C5.5602 12.9135 4.21061 12.4237 3.14175 11.5317H3.12648L3.0357 11.4413C1.742 10.309 1 8.675 1 6.95677ZM6.95677 7.20846C8.90354 7.20846 10.5172 8.6891 10.7783 10.6058C11.7133 9.62657 12.2424 8.32229 12.2424 6.95677C12.2424 4.04231 9.87122 1.67119 6.95677 1.67119C4.04231 1.67119 1.67119 4.04231 1.67119 6.95677C1.67119 8.30971 2.19068 9.60292 3.10987 10.5793C3.39697 8.69111 5.03047 7.20846 6.95677 7.20846Z" fill="url(#paint2_linear)"/>
<path d="M10.8686 11.4488L10.8029 11.3734L10.8029 11.3735L10.8686 11.4488ZM3.14175 11.5317L3.20582 11.455L3.178 11.4317H3.14175V11.5317ZM3.12648 11.5317L3.0559 11.6026L3.08517 11.6317H3.12648V11.5317ZM3.0357 11.4413L3.10643 11.3703L3.10156 11.366L3.0357 11.4413ZM10.7783 10.6058L10.6792 10.6193L10.7073 10.8251L10.8507 10.6749L10.7783 10.6058ZM3.10987 10.5793L3.03706 10.6479L3.17786 10.7974L3.20873 10.5944L3.10987 10.5793ZM6.95677 0.9C3.61693 0.9 0.9 3.61693 0.9 6.95677H1.1C1.1 3.72738 3.72738 1.1 6.95677 1.1V0.9ZM13.0135 6.95677C13.0135 3.61693 10.2966 0.9 6.95677 0.9V1.1C10.1862 1.1 12.8135 3.72738 12.8135 6.95677H13.0135ZM10.9343 11.5242C12.2558 10.373 13.0135 8.70829 13.0135 6.95677H12.8135C12.8135 8.65044 12.0809 10.2601 10.8029 11.3734L10.9343 11.5242ZM6.95677 13.0135C8.42008 13.0135 9.83279 12.4846 10.9343 11.5242L10.8029 11.3735C9.73783 12.3021 8.37183 12.8135 6.95677 12.8135V13.0135ZM3.07768 11.6085C4.16453 12.5155 5.53679 13.0135 6.95677 13.0135V12.8135C5.58361 12.8135 4.2567 12.332 3.20582 11.455L3.07768 11.6085ZM3.12648 11.6317H3.14175V11.4317H3.12648V11.6317ZM2.96513 11.5121L3.0559 11.6026L3.19706 11.4609L3.10628 11.3705L2.96513 11.5121ZM0.9 6.95677C0.9 8.70387 1.65447 10.3653 2.96984 11.5165L3.10156 11.366C1.82952 10.2527 1.1 8.64613 1.1 6.95677H0.9ZM10.8774 10.5923C10.6099 8.62847 8.95596 7.10846 6.95677 7.10846V7.30846C8.85112 7.30846 10.4246 8.74972 10.6792 10.6193L10.8774 10.5923ZM12.1424 6.95677C12.1424 8.29637 11.6233 9.57597 10.706 10.5368L10.8507 10.6749C11.8032 9.67717 12.3424 8.34822 12.3424 6.95677H12.1424ZM6.95677 1.77119C9.81599 1.77119 12.1424 4.09754 12.1424 6.95677H12.3424C12.3424 3.98709 9.92645 1.57119 6.95677 1.57119V1.77119ZM1.77119 6.95677C1.77119 4.09754 4.09754 1.77119 6.95677 1.77119V1.57119C3.98709 1.57119 1.57119 3.98709 1.57119 6.95677H1.77119ZM3.18268 10.5108C2.28081 9.55277 1.77119 8.28402 1.77119 6.95677H1.57119C1.57119 8.3354 2.10055 9.65306 3.03706 10.6479L3.18268 10.5108ZM6.95677 7.10846C4.97845 7.10846 3.30514 8.62982 3.01101 10.5643L3.20873 10.5944C3.4888 8.7524 5.08248 7.30846 6.95677 7.30846V7.10846Z" fill="url(#paint3_linear)"/>
<defs>
<linearGradient id="paint0_linear" x1="4.19822" y1="4.30612" x2="5.56851" y2="9.60125" gradientUnits="userSpaceOnUse">
<stop stop-color="#1BDBB6"/>
<stop offset="0.654365" stop-color="#15DA97"/>
<stop offset="0.828781" stop-color="#0ED973"/>
<stop offset="1" stop-color="#00D727"/>
</linearGradient>
<linearGradient id="paint1_linear" x1="4.19822" y1="4.30612" x2="5.56851" y2="9.60125" gradientUnits="userSpaceOnUse">
<stop stop-color="#1BDBB6"/>
<stop offset="0.654365" stop-color="#15DA97"/>
<stop offset="0.828781" stop-color="#0ED973"/>
<stop offset="1" stop-color="#00D727"/>
</linearGradient>
<linearGradient id="paint2_linear" x1="-1.28187" y1="3.13202" x2="2.98217" y2="19.6093" gradientUnits="userSpaceOnUse">
<stop stop-color="#1BDBB6"/>
<stop offset="0.654365" stop-color="#15DA97"/>
<stop offset="0.828781" stop-color="#0ED973"/>
<stop offset="1" stop-color="#00D727"/>
</linearGradient>
<linearGradient id="paint3_linear" x1="-1.28187" y1="3.13202" x2="2.98217" y2="19.6093" gradientUnits="userSpaceOnUse">
<stop stop-color="#1BDBB6"/>
<stop offset="0.654365" stop-color="#15DA97"/>
<stop offset="0.828781" stop-color="#0ED973"/>
<stop offset="1" stop-color="#00D727"/>
</linearGradient>
</defs>
</svg>
