<svg width="30" height="28" viewBox="0 0 30 28" fill="none" xmlns="http://www.w3.org/2000/svg">
<rect width="30" height="28" fill="white" fill-opacity="0.01"/>
<path fill-rule="evenodd" clip-rule="evenodd" d="M13.3072 11.9383L12.3369 11.3875C11.9159 11.7719 11.3568 11.9906 10.7723 12C9.24332 12 8 10.4299 8 8.5C8 6.57013 9.24332 5 10.7723 5C12.3012 5 13.5445 6.57013 13.5445 8.5C13.5531 9.2731 13.3392 10.034 12.9255 10.7007L13.783 11.1884C13.9966 11.3149 14.0637 11.5802 13.9339 11.7847C13.8042 11.9891 13.5254 12.0575 13.3072 11.9383ZM10.7723 5.875C9.77057 5.875 8.92409 7.07727 8.92409 8.5C8.92409 9.92273 9.77057 11.125 10.7723 11.125C11.0304 11.1216 11.2815 11.0457 11.494 10.9071L10.9965 10.6245C10.7829 10.498 10.7156 10.2327 10.8456 10.0283C10.9753 9.82382 11.2542 9.75546 11.4723 9.87466L12.1336 10.25C12.4591 9.71893 12.6274 9.11417 12.6204 8.5C12.6204 7.07727 11.774 5.875 10.7723 5.875Z" fill="url(#paint0_linear)"/>
<path fill-rule="evenodd" clip-rule="evenodd" d="M18 16C18.2114 16 18.4002 16.1164 18.471 16.2907L20.9709 22.4154C21.0256 22.5494 21.0024 22.6982 20.9086 22.8144C20.8151 22.9309 20.6625 22.9999 20.4999 22.9999C20.2885 22.9999 20.1001 22.8837 20.029 22.7093L19.2546 20.8125H16.7457L15.971 22.7093C15.8783 22.9371 15.5924 23.0556 15.3322 22.9744C15.0722 22.8933 14.9364 22.6429 15.0292 22.4154L17.5291 16.2907C17.6001 16.1164 17.7886 16 18 16ZM18 17.7384L17.1026 19.9375H18.9001L18 17.7384Z" fill="url(#paint1_linear)"/>
<path fill-rule="evenodd" clip-rule="evenodd" d="M26.2127 23.1168C27.3588 21.754 27.9934 20.0085 28 18.2C28 13.9651 24.4163 10.4068 19.7502 9.8802C19.8493 9.39348 19.8996 8.89742 19.9 8.39999C19.9 3.76842 15.6611 0 10.45 0C5.23902 0 1.00007 3.76842 1.00007 8.39999C1.0071 10.0629 1.54762 11.676 2.53639 12.9851L1.02929 17.101C0.976774 17.2443 0.995671 17.4054 1.07961 17.5317C1.16376 17.6579 1.30219 17.7333 1.45006 17.7333C1.51203 17.7331 1.57333 17.7199 1.63002 17.6941L5.88084 15.7557C6.94256 16.2727 8.08162 16.5986 9.24902 16.7189C9.15014 17.2058 9.10026 17.7023 9.10005 18.2C9.10005 22.8318 13.339 26.6 18.55 26.6C19.993 26.6034 21.4218 26.3063 22.7516 25.7259L27.3597 27.9562C27.5289 28.038 27.7291 28.0032 27.8631 27.8685C27.9971 27.7338 28.0371 27.5274 27.9635 27.3494L26.2127 23.1168ZM5.71077 14.8144L2.25206 16.3912L3.46693 13.0689C3.52406 12.9128 3.49659 12.7372 3.39464 12.608C2.43839 11.429 1.90995 9.94058 1.90006 8.39999C1.90006 4.28317 5.73538 0.933333 10.45 0.933333C15.1647 0.933333 19 4.28317 19 8.39999C19 8.99609 18.9178 9.58922 18.7561 10.1612C17.83 13.5208 14.4124 15.8667 10.45 15.8667C10.2472 15.8667 10.0477 15.8626 9.83679 15.8443C8.53491 15.7744 7.26072 15.4273 6.09375 14.8246C5.97378 14.7622 5.83338 14.7585 5.71077 14.8144ZM22.5721 24.7889C22.6919 24.7329 22.829 24.7335 22.9478 24.7912L26.6713 26.5929L25.2734 23.2139C25.204 23.046 25.2354 22.8512 25.3541 22.716C26.4654 21.4935 27.0892 19.88 27.1 18.2C27.1 14.399 23.7944 11.2 19.5076 10.78C19.4974 10.812 19.485 10.8428 19.4725 10.8737C19.4629 10.8975 19.4533 10.9213 19.4447 10.9457C19.4056 11.0571 19.3663 11.1608 19.3208 11.2725C19.2756 11.3839 19.2263 11.4969 19.1773 11.6033C19.1283 11.7097 19.078 11.8132 19.024 11.9187C18.9823 12 18.9378 12.0799 18.8936 12.1592C18.8805 12.1828 18.8674 12.2064 18.8543 12.2299C18.8044 12.3206 18.7494 12.4106 18.6958 12.4985C18.6887 12.5103 18.6815 12.522 18.6744 12.5337C18.6165 12.6284 18.5526 12.7202 18.4877 12.8134L18.479 12.8258L18.4786 12.8264C18.4106 12.9238 18.3416 13.0226 18.2705 13.1152C18.1996 13.2082 18.1266 13.2977 18.0506 13.3895C17.9746 13.4816 17.8968 13.5743 17.8179 13.6616C17.7392 13.7489 17.6577 13.8325 17.574 13.918C17.5672 13.9249 17.5603 13.9319 17.5535 13.9389C17.4766 14.0172 17.3994 14.0958 17.3193 14.1709C17.2447 14.2406 17.1684 14.3074 17.0912 14.3749C17.0781 14.3863 17.065 14.3977 17.0519 14.4092L17.0381 14.4214C16.9525 14.4965 16.868 14.5708 16.7779 14.6426C16.683 14.7182 16.5837 14.7925 16.4872 14.8625C16.4596 14.8825 16.4323 14.9027 16.405 14.9228C16.3373 14.9728 16.2696 15.0228 16.1961 15.0723C16.1102 15.1305 16.0186 15.1875 15.9322 15.2413C15.915 15.252 15.898 15.2626 15.8812 15.2731C15.8611 15.2857 15.8412 15.2982 15.8214 15.3107C15.7423 15.3605 15.6647 15.4094 15.5765 15.4597C15.4765 15.5169 15.3736 15.5702 15.2708 15.6234C15.2602 15.6289 15.2496 15.6344 15.239 15.6399C15.2114 15.6543 15.1838 15.6689 15.1562 15.6835C15.0796 15.7239 15.0027 15.7645 14.9239 15.8024C14.8225 15.8508 14.7172 15.8957 14.6121 15.9405C14.596 15.9473 14.58 15.9541 14.564 15.961C14.5372 15.9725 14.5105 15.9842 14.4838 15.9958C14.4034 16.0309 14.323 16.0659 14.241 16.0977C14.1437 16.1354 14.0443 16.1691 13.9449 16.2029C13.915 16.2131 13.885 16.2232 13.8551 16.2335C13.8223 16.2448 13.7896 16.2562 13.7569 16.2677C13.6809 16.2944 13.605 16.3211 13.5277 16.3445C13.4216 16.3767 13.3136 16.4044 13.2057 16.4321C13.1752 16.44 13.1448 16.4478 13.1144 16.4557C13.0782 16.4651 13.042 16.4749 13.0059 16.4847C12.934 16.5041 12.862 16.5236 12.7888 16.54C12.6693 16.5673 12.5472 16.5889 12.4251 16.6105C12.3963 16.6156 12.3675 16.6207 12.3388 16.6259C12.3014 16.6326 12.2642 16.6399 12.2269 16.6471C12.1611 16.6599 12.0953 16.6727 12.0283 16.6829C11.8823 16.7046 11.7342 16.7192 11.5861 16.7339C11.5614 16.7363 11.5368 16.7387 11.5122 16.7412C11.4767 16.7448 11.4416 16.749 11.4065 16.7533C11.354 16.7598 11.3014 16.7662 11.2474 16.7701C10.9842 16.79 10.7183 16.8 10.45 16.8C10.3507 16.8 10.2521 16.8 10.1536 16.7963C10.0517 17.2566 10.0003 17.7276 10 18.2C10 22.317 13.8354 25.6666 18.55 25.6666C19.9354 25.6712 21.306 25.372 22.5721 24.7889Z" fill="url(#paint2_linear)"/>
<defs>
<linearGradient id="paint0_linear" x1="23.3881" y1="27.6656" x2="23.3881" y2="-1.23216" gradientUnits="userSpaceOnUse">
<stop stop-color="#006DF0"/>
<stop offset="1" stop-color="#00E7F0"/>
</linearGradient>
<linearGradient id="paint1_linear" x1="30.3842" y1="28.1652" x2="30.3842" y2="-0.731098" gradientUnits="userSpaceOnUse">
<stop stop-color="#006DF0"/>
<stop offset="1" stop-color="#00E7F0"/>
</linearGradient>
<linearGradient id="paint2_linear" x1="29.3618" y1="28.3766" x2="29.3618" y2="-2.44763" gradientUnits="userSpaceOnUse">
<stop stop-color="#006DF0"/>
<stop offset="1" stop-color="#00E7F0"/>
</linearGradient>
</defs>
</svg>
