<svg width="62" height="62" viewBox="0 0 62 62" fill="none" xmlns="http://www.w3.org/2000/svg"><path fill-rule="evenodd" clip-rule="evenodd" d="M41.52 8.64h16.32c1.985 0 3.6 1.615 3.6 3.6v36c0 1.985-1.615 3.6-3.6 3.6H38.33l1.789 7.2h1.402a1.2 1.2 0 010 2.4h-21.6a1.2 1.2 0 110-2.4h1.406l1.786-7.2H3.6a3.604 3.604 0 01-3.6-3.6v-36c0-1.985 1.615-3.6 3.6-3.6h16.32v-1.2c0-1.985 1.615-3.6 3.6-3.6h1.604A6.009 6.009 0 0130.72 0a6.009 6.009 0 015.596 3.84h1.604c1.985 0 3.6 1.615 3.6 3.6v1.2zm3.96 30.565a1.908 1.908 0 001.906-1.906v-1.553a1.908 1.908 0 00-1.906-1.906c-1.05 0-1.906.855-1.906 1.906V37.3c0 1.051.855 1.906 1.906 1.906zm-2.446 1.635a4.28 4.28 0 002.446.765 4.28 4.28 0 002.448-.766 4.211 4.211 0 011.788 3.448v.353h-8.471v-.353c0-1.366.686-2.657 1.789-3.447zm6.752-3.54c0 .593-.12 1.158-.339 1.673a6.596 6.596 0 012.668 5.314v.353h6.925v-15.6H2.4v15.6h6.925v-.353c0-2.125.998-4.072 2.668-5.314a4.284 4.284 0 01-.339-1.674v-1.553a4.31 4.31 0 014.306-4.306 4.31 4.31 0 014.306 4.306V37.3c0 .593-.12 1.16-.339 1.674a6.596 6.596 0 012.668 5.314v.353h6.925v-6a1.2 1.2 0 012.4 0v6h6.925v-.353c0-2.125.999-4.072 2.668-5.314a4.284 4.284 0 01-.339-1.674v-1.553a4.31 4.31 0 014.306-4.306 4.311 4.311 0 014.306 4.306V37.3zm-31.92 0a1.908 1.908 0 01-1.906 1.905 1.908 1.908 0 01-1.906-1.906v-1.553c0-1.05.855-1.906 1.906-1.906s1.906.855 1.906 1.906V37.3zm-1.906 4.305a4.28 4.28 0 01-2.446-.765 4.274 4.274 0 00-1.79 3.447v.353h8.471v-.353a4.211 4.211 0 00-1.787-3.448 4.28 4.28 0 01-2.448.766zM17.866 19.3a1.908 1.908 0 01-1.906 1.906 1.908 1.908 0 01-1.906-1.906v-1.553c0-1.05.855-1.906 1.906-1.906s1.906.855 1.906 1.906V19.3zm-1.906 4.306a4.28 4.28 0 01-2.446-.765 4.274 4.274 0 00-1.79 3.447v.353h8.471v-.353a4.211 4.211 0 00-1.787-3.448 4.28 4.28 0 01-2.448.766zM47.386 19.3a1.908 1.908 0 01-1.906 1.906 1.908 1.908 0 01-1.906-1.906v-1.553c0-1.05.855-1.906 1.906-1.906s1.906.855 1.906 1.906V19.3zm-1.906 4.306a4.28 4.28 0 01-2.446-.765 4.275 4.275 0 00-1.79 3.447v.353h8.471v-.353a4.211 4.211 0 00-1.787-3.448 4.28 4.28 0 01-2.448.766zM59.04 12.24v14.4h-6.925v-.353a6.596 6.596 0 00-2.668-5.314c.219-.515.34-1.08.34-1.674v-1.553a4.31 4.31 0 00-4.307-4.306 4.31 4.31 0 00-4.306 4.306V19.3c0 .594.12 1.16.339 1.674a6.595 6.595 0 00-2.668 5.314v.353H31.92V11.88a5.965 5.965 0 002.05-.84h23.87c.662 0 1.2.539 1.2 1.2zm-19.92-3.6v-1.2c0-.662-.538-1.2-1.2-1.2h-1.206a5.955 5.955 0 01-.608 2.4h3.014zm-8.4-6.24c1.985 0 3.6 1.615 3.6 3.6s-1.615 3.6-3.6 3.6a3.604 3.604 0 01-3.6-3.6c0-1.985 1.615-3.6 3.6-3.6zm-8.4 5.04v1.2h3.014a5.958 5.958 0 01-.608-2.4H23.52c-.662 0-1.2.538-1.2 1.2zM2.4 12.24c0-.661.538-1.2 1.2-1.2h23.871a5.964 5.964 0 002.05.84v14.76h-6.926v-.353a6.596 6.596 0 00-2.668-5.314c.218-.515.339-1.08.339-1.674v-1.553a4.31 4.31 0 00-4.306-4.306 4.31 4.31 0 00-4.306 4.306V19.3c0 .594.12 1.16.339 1.674a6.594 6.594 0 00-2.668 5.314v.353H2.4v-14.4zm0 34.8v1.2c0 .662.538 1.2 1.2 1.2h46.115v-2.4H2.4zm35.245 12H23.8l1.786-7.2h10.27l1.79 7.2zm14.47-9.6h5.725c.662 0 1.2-.538 1.2-1.2v-1.2h-6.925v2.4z" fill="url(#paint0_linear)"/><path d="M30.72 7.2a1.2 1.2 0 000-2.4 1.2 1.2 0 100 2.4z" fill="url(#paint1_linear)"/><path d="M30.72 32.04a1.2 1.2 0 101.2 1.2 1.2 1.2 0 00-1.2-1.2z" fill="url(#paint2_linear)"/><defs><linearGradient id="paint0_linear" x1="-11.768" y1="10.995" x2="10.223" y2="95.971" gradientUnits="userSpaceOnUse"><stop stop-color="#1BDBB6"/><stop offset=".654" stop-color="#15DA97"/><stop offset=".829" stop-color="#0ED973"/><stop offset="1" stop-color="#00D727"/></linearGradient><linearGradient id="paint1_linear" x1="29.06" y1="5.229" x2="29.919" y2="8.549" gradientUnits="userSpaceOnUse"><stop stop-color="#1BDBB6"/><stop offset=".654" stop-color="#15DA97"/><stop offset=".829" stop-color="#0ED973"/><stop offset="1" stop-color="#00D727"/></linearGradient><linearGradient id="paint2_linear" x1="29.061" y1="32.47" x2="29.92" y2="35.79" gradientUnits="userSpaceOnUse"><stop stop-color="#1BDBB6"/><stop offset=".654" stop-color="#15DA97"/><stop offset=".829" stop-color="#0ED973"/><stop offset="1" stop-color="#00D727"/></linearGradient></defs></svg>