<svg width="34" height="38" viewBox="0 0 34 38" fill="none" xmlns="http://www.w3.org/2000/svg"><path fill-rule="evenodd" clip-rule="evenodd" d="M16.333 28.48L3.391 36.12l.409.68 13.309-7.88 13.31 7.88.408-.68-12.942-7.64L29.48 21.6h3.756v-.8h-3.43V1.2h-.817v3.28H5.23V1.2h-.817v19.6H.942v.8h3.756l11.635 6.88zm.776-.48l-10.82-6.4h21.64L17.108 28zm11.88-22.72H5.23V20.8h23.76V5.28z" fill="#fff"/><path d="M3.391 36.12l-.203-.344-.347.204.207.346.343-.206zm12.942-7.64l.204.344.583-.344-.583-.344-.204.344zM3.8 36.8l-.343.206.204.34.342-.202L3.8 36.8zm13.309-7.88l.204-.344-.204-.12-.204.12.204.344zm13.31 7.88l-.204.344.342.203.204-.341-.342-.206zm.408-.68l.343.206.207-.346-.347-.204-.203.344zm-12.942-7.64l-.204-.344-.582.345.582.343.204-.344zM29.48 21.6v-.4h-.11l-.095.056.205.344zm3.756 0v.4h.4v-.4h-.4zm0-.8h.4v-.4h-.4v.4zm-3.43 0h-.4v.4h.4v-.4zm0-19.6h.4V.8h-.4v.4zm-.817 0V.8h-.4v.4h.4zm0 3.28v.4h.4v-.4h-.4zm-23.76 0h-.4v.4h.4v-.4zm0-3.28h.4V.8h-.4v.4zm-.817 0V.8h-.4v.4h.4zm0 19.6v.4h.4v-.4h-.4zm-3.47 0v-.4h-.4v.4h.4zm0 .8h-.4v.4h.4v-.4zm3.756 0l.203-.344-.094-.056h-.11v.4zm1.592 0v-.4H4.828l1.258.744.204-.344zM17.109 28l-.204.344.204.12.204-.12-.204-.344zm10.82-6.4l.203.344 1.258-.744h-1.462v.4zM5.228 5.28v-.4h-.4v.4h.4zm23.76 0h.4v-.4h-.4v.4zM5.23 20.8h-.4v.4h.4v-.4zm23.76 0v.4h.4v-.4h-.4zM3.596 36.464l12.942-7.64-.407-.689-12.942 7.64.407.69zm.547.13l-.408-.68-.686.412.409.68.685-.412zm12.763-8.018l-13.31 7.88.408.688 13.31-7.88-.408-.688zm13.717 7.88l-13.31-7.88-.407.688 13.31 7.88.407-.688zm-.138-.542l-.409.68.686.412.409-.68-.686-.412zm-12.803-7.09l12.942 7.64.407-.688-12.942-7.64-.407.688zm11.594-7.568l-11.594 6.88.408.688 11.595-6.88-.409-.688zm3.96-.056H29.48v.8h3.756v-.8zm-.4-.4v.8h.8v-.8h-.8zm-3.029.4h3.43v-.8h-3.43v.8zm-.4-20v19.6h.8V1.2h-.8zm-.416.4h.816V.8h-.817v.8zm.4 2.88V1.2h-.8v3.28h.8zm-24.162.4H28.99v-.8H5.23v.8zm-.4-3.68v3.28h.8V1.2h-.8zm-.416.4h.816V.8h-.816v.8zm.4 19.2V1.2h-.8v19.6h.8zm-3.87.4h3.47v-.8H.942v.8zm.4.4v-.8h-.8v.8h.8zm3.356-.4H.942v.8h3.756v-.8zm11.839 6.936L4.9 21.256l-.407.688 11.636 6.88.407-.688zm-10.45-6.192l10.818 6.4.408-.688-10.82-6.4-.407.688zm21.841-.744H6.29v.8h21.638v-.8zm-10.615 7.144l10.819-6.4-.408-.688-10.819 6.4.408.688zM5.228 5.68H28.99v-.8H5.228v.8zm.4 15.12V5.28h-.8V20.8h.8zm23.362-.4H5.228v.8H28.99v-.8zm-.4-15.12V20.8h.8V5.28h-.8z" fill="#fff"/><path fill-rule="evenodd" clip-rule="evenodd" d="M18.538 11.6l3.225.44-2.327 2.24.53 3.12-2.857-1.48-2.858 1.48.531-3.16L12.455 12l3.225-.44 1.43-2.84 1.428 2.88zm-2.899 2.36l-.326 1.96 1.796-.92 1.796.96L18.58 14l1.429-1.4-2-.28-.899-1.76-.898 1.76-2 .28 1.428 1.36z" fill="#fff"/><path d="M21.763 12.04l.278.288.595-.573-.819-.111-.054.396zm-3.225-.44l-.358.178.094.19.21.028.054-.396zm.898 2.68l-.277-.288-.153.146.036.21.394-.068zm.53 3.12l-.183.355.713.37-.135-.792-.394.067zm-2.857-1.48l.184-.355-.184-.095-.184.095.184.355zm-2.858 1.48l-.394-.066-.133.79.711-.369-.184-.355zm.531-3.16l.394.066.035-.208-.152-.146-.277.288zM12.455 12l-.054-.396-.819.111.595.573.278-.288zm3.225-.44l.054.396.209-.028.095-.188-.358-.18zm1.43-2.84l.357-.178-.355-.717-.36.715.357.18zm-1.797 7.2l-.395-.066-.13.784.707-.362-.182-.356zm.326-1.96l.395.066.035-.21-.154-.146-.276.29zM17.11 15l.189-.353-.185-.098-.186.095.182.356zm1.796.96l-.188.353.717.383-.134-.802-.395.066zM18.58 14l-.28-.286-.149.146.034.206.395-.066zm1.429-1.4l.28.286.58-.57-.805-.112-.055.396zm-2-.28l-.357.182.095.185.206.03.055-.397zm-.899-1.76l.356-.182-.356-.698-.356.698.356.182zm-.898 1.76l.055.396.207-.029.094-.185-.356-.182zm-2 .28l-.056-.396-.82.115.6.57.275-.29zm7.606-.956l-3.225-.44-.108.792 3.225.44.108-.792zm-2.103 2.924l2.327-2.24-.555-.576-2.327 2.24.555.576zm.647 2.765l-.53-3.12-.79.134.532 3.12.788-.134zm-3.436-1.058l2.858 1.48.368-.71-2.858-1.48-.368.71zm-2.49 1.48l2.858-1.48-.368-.71-2.858 1.48.368.71zm-.048-3.581l-.53 3.16.789.132.53-3.16-.789-.132zm-2.21-1.886l2.328 2.24.554-.576-2.327-2.24-.555.576zm3.45-1.124l-3.226.44.108.792 3.225-.44-.108-.792zm1.125-2.624l-1.43 2.84.716.36 1.428-2.84-.714-.36zm2.144 2.882l-1.429-2.88-.716.356 1.429 2.88.716-.356zm-3.189 4.564l.327-1.96-.79-.132-.326 1.96.79.132zm1.22-1.342l-1.797.92.365.712 1.796-.92-.364-.712zm2.167.963l-1.796-.96-.377.706 1.796.96.377-.706zm-.91-1.541l.327 1.96.789-.132-.327-1.96-.789.132zm1.544-1.752l-1.43 1.4.56.572 1.43-1.4-.56-.572zm-1.776.402l2 .28.111-.792-2-.28-.111.792zm-1.2-1.974l.899 1.76.712-.364-.898-1.76-.712.364zm-.185 1.76l.898-1.76-.712-.364-.898 1.76.712.364zm-2.301.494l2-.28-.11-.792-2.001.28.11.792zm1.65.674l-1.43-1.36-.551.58 1.428 1.36.552-.58z" fill="#fff"/></svg>