<svg width="14" height="14" viewBox="0 0 14 14" fill="none" xmlns="http://www.w3.org/2000/svg">
<path fill-rule="evenodd" clip-rule="evenodd" d="M12.1696 8.19228L12.6782 8.58621C12.9195 8.76994 12.984 9.0905 12.8308 9.34423L12.0933 10.538C11.9409 10.7704 11.6398 10.8761 11.3623 10.7946L10.7266 10.5797C10.3514 10.4481 9.9321 10.4901 9.59498 10.6931C9.44554 10.7901 9.28825 10.8759 9.12455 10.9498C8.76684 11.122 8.51695 11.443 8.4507 11.8153L8.34263 12.4121C8.29226 12.704 8.02184 12.9173 7.70691 12.9135H6.24477C5.92984 12.9173 5.65942 12.704 5.60905 12.4121L5.50098 11.8153C5.43473 11.443 5.18484 11.122 4.82713 10.9498C4.66343 10.8759 4.50614 10.7901 4.3567 10.6931C4.01958 10.4901 3.60029 10.4481 3.22513 10.5797L2.58941 10.7946C2.30064 10.8953 1.9765 10.7872 1.8202 10.538L1.08277 9.34423C0.929513 9.0905 0.994035 8.76994 1.23534 8.58621L1.74391 8.19228C2.05226 7.95195 2.22189 7.5892 2.20162 7.21342V6.95677V6.70012C2.22189 6.32434 2.05226 5.96158 1.74391 5.72126L1.23534 5.32733C0.994035 5.1436 0.929513 4.82304 1.08277 4.56931L1.8202 3.37558C1.97533 3.13207 2.29161 3.02477 2.5767 3.11892L3.21241 3.33379C3.58757 3.46544 4.00687 3.42342 4.34398 3.22039C4.49343 3.12346 4.65071 3.03764 4.81441 2.96374C5.16237 2.78586 5.40212 2.46587 5.46284 2.09828L5.57091 1.50142C5.62128 1.20952 5.8917 0.996245 6.20663 1.00005H7.66877C7.9837 0.996245 8.25412 1.20952 8.30448 1.50142L8.41255 2.09828C8.47881 2.47057 8.72869 2.7915 9.08641 2.96374C9.25011 3.03764 9.4074 3.12346 9.55684 3.22039C9.89395 3.42342 10.3133 3.46544 10.6884 3.33379L11.3241 3.11892C11.6129 3.01819 11.937 3.12634 12.0933 3.37558L12.8308 4.56931C12.984 4.82304 12.9195 5.1436 12.6782 5.32733L12.1696 5.72126C11.8613 5.96158 11.6916 6.32434 11.7119 6.70012V6.95677V7.21342C11.6916 7.5892 11.8613 7.95195 12.1696 8.19228ZM5.04963 6.95677C5.04963 7.94569 5.90348 8.74736 6.95677 8.74736C7.46257 8.74736 7.94766 8.55871 8.30532 8.22291C8.66298 7.88711 8.86391 7.43166 8.86391 6.95677C8.86391 5.96785 8.01005 5.16617 6.95677 5.16617C5.90348 5.16617 5.04963 5.96785 5.04963 6.95677Z" fill="url(#paint0_linear)"/>
<path d="M12.6782 8.58621L12.617 8.66527L12.6176 8.66577L12.6782 8.58621ZM12.1696 8.19228L12.1082 8.27115L12.1084 8.27134L12.1696 8.19228ZM12.8308 9.34423L12.9158 9.39679L12.9164 9.39593L12.8308 9.34423ZM12.0933 10.538L12.177 10.5928L12.1784 10.5905L12.0933 10.538ZM11.3623 10.7946L11.3302 10.8894L11.3341 10.8906L11.3623 10.7946ZM10.7266 10.5797L10.6934 10.6741L10.6945 10.6745L10.7266 10.5797ZM9.59498 10.6931L9.54336 10.6074L9.54056 10.6093L9.59498 10.6931ZM9.12455 10.9498L9.08339 10.8586L9.08117 10.8597L9.12455 10.9498ZM8.4507 11.8153L8.5491 11.8331L8.54915 11.8328L8.4507 11.8153ZM8.34263 12.4121L8.24422 12.3943L8.24408 12.3951L8.34263 12.4121ZM7.70691 12.9135L7.70812 12.8135H7.70691V12.9135ZM6.24477 12.9135V12.8135L6.24356 12.8135L6.24477 12.9135ZM5.60905 12.4121L5.7076 12.3951L5.70745 12.3943L5.60905 12.4121ZM5.50098 11.8153L5.40253 11.8328L5.40258 11.8331L5.50098 11.8153ZM4.82713 10.9498L4.87052 10.8597L4.86827 10.8587L4.82713 10.9498ZM4.3567 10.6931L4.41115 10.6092L4.40829 10.6075L4.3567 10.6931ZM3.22513 10.5797L3.25715 10.6745L3.25824 10.6741L3.22513 10.5797ZM2.58941 10.7946L2.55739 10.6999L2.55647 10.7002L2.58941 10.7946ZM1.8202 10.538L1.73512 10.5905L1.73548 10.5911L1.8202 10.538ZM1.08277 9.34423L0.997166 9.39593L0.997692 9.39679L1.08277 9.34423ZM1.23534 8.58621L1.29592 8.66578L1.29658 8.66527L1.23534 8.58621ZM1.74391 8.19228L1.80515 8.27134L1.80538 8.27115L1.74391 8.19228ZM2.20162 7.21342H2.10148L2.10177 7.2188L2.20162 7.21342ZM2.20162 6.70012L2.10162 6.69472V6.70012H2.20162ZM1.74391 5.72126L1.80538 5.64238L1.80515 5.6422L1.74391 5.72126ZM1.23534 5.32733L1.29658 5.24826L1.29592 5.24776L1.23534 5.32733ZM1.08277 4.56931L0.997688 4.51675L0.99717 4.5176L1.08277 4.56931ZM1.8202 3.37558L1.73585 3.32184L1.73512 3.32302L1.8202 3.37558ZM2.5767 3.11892L2.60872 3.02419L2.60806 3.02397L2.5767 3.11892ZM3.21241 3.33379L3.24552 3.23943L3.24443 3.23906L3.21241 3.33379ZM4.34398 3.22039L4.3956 3.3061L4.3984 3.30429L4.34398 3.22039ZM4.81441 2.96374L4.85561 3.05499L4.85993 3.05278L4.81441 2.96374ZM5.46284 2.09828L5.36443 2.08046L5.36418 2.08199L5.46284 2.09828ZM5.57091 1.50142L5.66931 1.51923L5.66945 1.51842L5.57091 1.50142ZM6.20663 1.00005L6.20542 1.10005H6.20663V1.00005ZM7.66877 1.00005V1.10006L7.66998 1.10004L7.66877 1.00005ZM8.30448 1.50142L8.20594 1.51842L8.20608 1.51923L8.30448 1.50142ZM8.41255 2.09828L8.51101 2.08076L8.51095 2.08047L8.41255 2.09828ZM9.08641 2.96374L9.04302 3.05386L9.04526 3.05488L9.08641 2.96374ZM9.55684 3.22039L9.50239 3.30433L9.50525 3.30605L9.55684 3.22039ZM10.6884 3.33379L10.6564 3.23905L10.6553 3.23943L10.6884 3.33379ZM11.3241 3.11892L11.3561 3.21366L11.3571 3.21334L11.3241 3.11892ZM12.0933 3.37558L12.1784 3.32302L12.1781 3.32245L12.0933 3.37558ZM12.8308 4.56931L12.9164 4.5176L12.9158 4.51675L12.8308 4.56931ZM12.6782 5.32733L12.6176 5.24776L12.617 5.24827L12.6782 5.32733ZM12.1696 5.72126L12.1084 5.6422L12.1082 5.64238L12.1696 5.72126ZM11.7119 6.70012H11.8121L11.8118 6.69473L11.7119 6.70012ZM11.7119 7.21342L11.8119 7.21881V7.21342H11.7119ZM8.30532 8.22291L8.23687 8.15001V8.15001L8.30532 8.22291ZM12.7394 8.50715L12.2309 8.11322L12.1084 8.27134L12.617 8.66527L12.7394 8.50715ZM12.9164 9.39593C13.097 9.09691 13.0192 8.72019 12.7388 8.50665L12.6176 8.66577C12.8198 8.81968 12.8711 9.08409 12.7452 9.29253L12.9164 9.39593ZM12.1784 10.5905L12.9158 9.39679L12.7457 9.29167L12.0083 10.4854L12.1784 10.5905ZM11.3341 10.8906C11.6515 10.9838 11.999 10.8641 12.177 10.5928L12.0097 10.4831C11.8827 10.6767 11.6281 10.7685 11.3904 10.6987L11.3341 10.8906ZM10.6945 10.6745L11.3302 10.8893L11.3943 10.6999L10.7586 10.485L10.6945 10.6745ZM9.64657 10.7788C9.95786 10.5913 10.3461 10.5522 10.6934 10.6741L10.7597 10.4854C10.3567 10.344 9.90634 10.3889 9.54339 10.6075L9.64657 10.7788ZM9.1657 11.0409C9.33396 10.965 9.49569 10.8767 9.6494 10.777L9.54056 10.6093C9.39539 10.7034 9.24254 10.7868 9.08341 10.8587L9.1657 11.0409ZM8.54915 11.8328C8.60945 11.4939 8.83747 11.199 9.16794 11.0399L9.08117 10.8597C8.69621 11.0451 8.42445 11.392 8.35224 11.7977L8.54915 11.8328ZM8.44103 12.4299L8.5491 11.8331L8.3523 11.7974L8.24423 12.3943L8.44103 12.4299ZM7.7057 13.0135C8.0651 13.0178 8.38168 12.7739 8.44117 12.4291L8.24408 12.3951C8.20283 12.6342 7.97857 12.8168 7.70812 12.8135L7.7057 13.0135ZM6.24477 13.0135H7.70691V12.8135H6.24477V13.0135ZM5.51051 12.4291C5.57 12.7739 5.88658 13.0178 6.24598 13.0135L6.24356 12.8135C5.9731 12.8168 5.74884 12.6342 5.7076 12.3951L5.51051 12.4291ZM5.40258 11.8331L5.51065 12.4299L5.70745 12.3943L5.59938 11.7974L5.40258 11.8331ZM4.78374 11.0399C5.11421 11.199 5.34223 11.4939 5.40253 11.8328L5.59944 11.7977C5.52722 11.392 5.25547 11.0451 4.87051 10.8597L4.78374 11.0399ZM4.30228 10.777C4.45599 10.8767 4.61772 10.965 4.78598 11.0409L4.86827 10.8587C4.70914 10.7868 4.55629 10.7034 4.41111 10.6093L4.30228 10.777ZM3.25824 10.6741C3.60561 10.5522 3.99382 10.5913 4.30511 10.7788L4.40829 10.6075C4.04534 10.3889 3.59496 10.344 3.19201 10.4854L3.25824 10.6741ZM2.62143 10.8893L3.25715 10.6745L3.1931 10.485L2.55739 10.6999L2.62143 10.8893ZM1.73548 10.5911C1.91796 10.8821 2.29205 11.0043 2.62235 10.889L2.55647 10.7002C2.30924 10.7864 2.03505 10.6923 1.90491 10.4848L1.73548 10.5911ZM0.997692 9.39679L1.73512 10.5905L1.90527 10.4854L1.16784 9.29167L0.997692 9.39679ZM1.17476 8.50665C0.89429 8.72019 0.81656 9.09691 0.99717 9.39593L1.16837 9.29253C1.04247 9.08409 1.09378 8.81968 1.29592 8.66577L1.17476 8.50665ZM1.68267 8.11322L1.1741 8.50715L1.29658 8.66527L1.80515 8.27134L1.68267 8.11322ZM2.10177 7.2188C2.12019 7.56043 1.96617 7.89227 1.68244 8.11341L1.80538 8.27115C2.13835 8.01164 2.32358 7.61797 2.30148 7.20804L2.10177 7.2188ZM2.10162 6.95677V7.21342H2.30163V6.95677H2.10162ZM2.10162 6.70012V6.95677H2.30163V6.70012H2.10162ZM1.68244 5.80013C1.96617 6.02127 2.12019 6.35311 2.10177 6.69473L2.30148 6.7055C2.32358 6.29557 2.13835 5.90189 1.80538 5.64238L1.68244 5.80013ZM1.1741 5.40638L1.68267 5.80031L1.80515 5.6422L1.29658 5.24827L1.1741 5.40638ZM0.99717 4.5176C0.81656 4.81663 0.89429 5.19334 1.17476 5.40689L1.29592 5.24776C1.09378 5.09386 1.04247 4.82945 1.16837 4.62101L0.99717 4.5176ZM1.73512 3.32302L0.997692 4.51675L1.16784 4.62186L1.90527 3.42813L1.73512 3.32302ZM2.60806 3.02397C2.28198 2.91628 1.91695 3.0376 1.73586 3.32184L1.90453 3.42931C2.03371 3.22655 2.30124 3.13327 2.54534 3.21388L2.60806 3.02397ZM3.24443 3.23906L2.60872 3.02419L2.54468 3.21366L3.18039 3.42853L3.24443 3.23906ZM4.29239 3.13473C3.98111 3.32219 3.5929 3.36133 3.24552 3.23943L3.1793 3.42815C3.58224 3.56954 4.03263 3.52464 4.39557 3.30605L4.29239 3.13473ZM4.77326 2.8726C4.605 2.94856 4.44328 3.03679 4.28956 3.13649L4.3984 3.30429C4.54357 3.21012 4.69642 3.12673 4.85556 3.05488L4.77326 2.8726ZM5.36418 2.08199C5.30892 2.41651 5.09022 2.71044 4.76889 2.8747L4.85993 3.05278C5.23452 2.86129 5.49532 2.51522 5.5615 2.11458L5.36418 2.08199ZM5.47251 1.4836L5.36444 2.08047L5.56124 2.1161L5.66931 1.51923L5.47251 1.4836ZM6.20783 0.900057C5.84843 0.895714 5.53185 1.13966 5.47237 1.48441L5.66945 1.51842C5.7107 1.27937 5.93496 1.09677 6.20542 1.10004L6.20783 0.900057ZM7.66877 0.90005H6.20663V1.10005H7.66877V0.90005ZM8.40303 1.48441C8.34354 1.13966 8.02696 0.895714 7.66756 0.900057L7.66998 1.10004C7.94043 1.09677 8.16469 1.27937 8.20594 1.51842L8.40303 1.48441ZM8.51095 2.08047L8.40288 1.4836L8.20608 1.51923L8.31415 2.1161L8.51095 2.08047ZM9.12979 2.87364C8.79932 2.71452 8.57131 2.41959 8.51101 2.08076L8.3141 2.1158C8.38631 2.52154 8.65806 2.86848 9.04303 3.05384L9.12979 2.87364ZM9.61126 3.13649C9.45755 3.03679 9.29582 2.94856 9.12756 2.8726L9.04526 3.05488C9.2044 3.12673 9.35725 3.21012 9.50242 3.30429L9.61126 3.13649ZM10.6553 3.23943C10.3079 3.36133 9.91971 3.32219 9.60843 3.13473L9.50525 3.30605C9.86819 3.52464 10.3186 3.56954 10.7215 3.42815L10.6553 3.23943ZM11.2921 3.02419L10.6564 3.23906L10.7204 3.42853L11.3561 3.21366L11.2921 3.02419ZM12.1781 3.32245C11.9956 3.03147 11.6215 2.90928 11.2912 3.0245L11.3571 3.21334C11.6043 3.1271 11.8785 3.22121 12.0086 3.4287L12.1781 3.32245ZM12.9158 4.51675L12.1784 3.32302L12.0083 3.42813L12.7457 4.62186L12.9158 4.51675ZM12.7388 5.40689C13.0192 5.19334 13.097 4.81663 12.9164 4.5176L12.7452 4.62101C12.8711 4.82945 12.8198 5.09386 12.6176 5.24776L12.7388 5.40689ZM12.2309 5.80031L12.7394 5.40638L12.617 5.24827L12.1084 5.6422L12.2309 5.80031ZM11.8118 6.69473C11.7933 6.35311 11.9474 6.02127 12.2311 5.80013L12.1082 5.64238C11.7752 5.90189 11.59 6.29557 11.6121 6.7055L11.8118 6.69473ZM11.8119 6.95677V6.70012H11.6119V6.95677H11.8119ZM11.8119 7.21342V6.95677H11.6119V7.21342H11.8119ZM12.2311 8.11341C11.9474 7.89227 11.7933 7.56043 11.8118 7.2188L11.6121 7.20804C11.59 7.61797 11.7752 8.01164 12.1082 8.27115L12.2311 8.11341ZM6.95677 8.64736C5.95268 8.64736 5.14963 7.88461 5.14963 6.95677H4.94963C4.94963 8.00676 5.85429 8.84736 6.95677 8.84736V8.64736ZM8.23687 8.15001C7.89838 8.46781 7.43802 8.64736 6.95677 8.64736V8.84736C7.48713 8.84736 7.99694 8.64961 8.37377 8.29581L8.23687 8.15001ZM8.76391 6.95677C8.76391 7.40303 8.57515 7.8324 8.23687 8.15001L8.37377 8.29581C8.75081 7.94182 8.96391 7.46029 8.96391 6.95677H8.76391ZM6.95677 5.26617C7.96086 5.26617 8.76391 6.02892 8.76391 6.95677H8.96391C8.96391 5.90677 8.05925 5.06617 6.95677 5.06617V5.26617ZM5.14963 6.95677C5.14963 6.02892 5.95268 5.26617 6.95677 5.26617V5.06617C5.85429 5.06617 4.94963 5.90677 4.94963 6.95677H5.14963Z" fill="url(#paint1_linear)"/>
<defs>
<linearGradient id="paint0_linear" x1="-1.28187" y1="3.13204" x2="2.98224" y2="19.6094" gradientUnits="userSpaceOnUse">
<stop stop-color="#1BDBB6"/>
<stop offset="0.654365" stop-color="#15DA97"/>
<stop offset="0.828781" stop-color="#0ED973"/>
<stop offset="1" stop-color="#00D727"/>
</linearGradient>
<linearGradient id="paint1_linear" x1="-1.28187" y1="3.13204" x2="2.98224" y2="19.6094" gradientUnits="userSpaceOnUse">
<stop stop-color="#1BDBB6"/>
<stop offset="0.654365" stop-color="#15DA97"/>
<stop offset="0.828781" stop-color="#0ED973"/>
<stop offset="1" stop-color="#00D727"/>
</linearGradient>
</defs>
</svg>
