<svg width="22" height="19" viewBox="0 0 22 19" fill="none" xmlns="http://www.w3.org/2000/svg">
<g id="twitter copy">
<g id="twitter (1)">
<path id="Path" d="M21.916 2.81299C21.1099 3.16658 20.251 3.40095 19.3555 3.51475C20.2768 2.96472 20.9799 2.10039 21.3104 1.05859C20.4515 1.57068 19.5032 1.9324 18.4926 2.13426C17.677 1.26586 16.5146 0.728027 15.2466 0.728027C12.7863 0.728027 10.8057 2.72493 10.8057 5.17297C10.8057 5.5252 10.8355 5.86389 10.9087 6.18632C7.21425 6.00614 3.94524 4.23548 1.74918 1.53817C1.36579 2.20335 1.1409 2.96472 1.1409 3.78435C1.1409 5.32335 1.93343 6.68758 3.11477 7.4774C2.40082 7.46385 1.70041 7.25658 1.10703 6.93008C1.10703 6.94363 1.10703 6.96124 1.10703 6.97885C1.10703 9.13833 2.64738 10.932 4.66732 11.3452C4.3056 11.4441 3.91137 11.4915 3.50223 11.4915C3.21774 11.4915 2.93053 11.4753 2.66093 11.4157C3.2367 13.1755 4.87053 14.4693 6.81325 14.5113C5.30134 15.694 3.38166 16.4066 1.30347 16.4066C0.939042 16.4066 0.589516 16.3903 0.23999 16.3456C2.20844 17.615 4.54133 18.3398 7.0571 18.3398C15.2344 18.3398 19.7051 11.566 19.7051 5.69455C19.7051 5.49811 19.6983 5.30844 19.6888 5.12013C20.5708 4.49424 21.3118 3.71255 21.916 2.81299Z" fill="white"/>
</g>
</g>
</svg>
