<svg width="27" height="27" viewBox="0 0 27 27" fill="none" xmlns="http://www.w3.org/2000/svg">
<path d="M10.9171 12.8443C10.4196 13.3418 10.088 13.9498 9.92214 14.6131L9.09299 17.985C9.03771 18.1785 9.20354 18.3443 9.39701 18.289L12.7689 17.4599C13.4322 17.294 14.0403 16.9624 14.5377 16.4649L14.7036 16.2991L25.0403 5.96232C25.1509 5.85177 25.1509 5.71358 25.0403 5.60303L21.779 2.3417C21.6684 2.23115 21.5302 2.23115 21.4197 2.3417L11.083 12.6784L10.9171 12.8443Z" fill="black"/>
<path d="M26.2011 1.20864C25.2062 0.213657 23.5755 0.213657 22.5805 1.20864C22.5529 1.23628 22.5529 1.29155 22.5805 1.31919L26.0906 4.82926C26.1182 4.8569 26.1735 4.8569 26.2011 4.82926C27.1961 3.83428 27.1961 2.20362 26.2011 1.20864Z" fill="black"/>
<path d="M24.4046 8.94745C23.686 8.94745 23.1056 9.52785 23.1056 10.2464V22.6837C23.1056 23.4023 22.4976 24.0103 21.779 24.0103H4.64323C3.92463 24.0103 3.31659 23.4023 3.31659 22.6837V5.54793C3.31659 4.82934 3.92463 4.22129 4.64323 4.22129H17.0805C17.7991 4.22129 18.3795 3.64089 18.3795 2.92229C18.3795 2.2037 17.7991 1.62329 17.0805 1.62329H4.64323C2.4598 1.62329 0.690948 3.39214 0.690948 5.57557V22.7113C0.690948 24.8948 2.4598 26.6636 4.64323 26.6636H21.779C23.9624 26.6636 25.7313 24.8948 25.7313 22.7113V10.2741C25.7036 9.52785 25.1232 8.94745 24.4046 8.94745Z" fill="black"/>
</svg>
